<?xml version="1.0" encoding="UTF-8"?>
<!DOCTYPE svg PUBLIC "-//W3C//DTD SVG 1.1//EN" "http://www.w3.org/Graphics/SVG/1.1/DTD/svg11.dtd">
<svg xmlns="http://www.w3.org/2000/svg" version="1.1" width="3000px" height="1500px" style="shape-rendering:geometricPrecision; text-rendering:geometricPrecision; image-rendering:optimizeQuality; fill-rule:evenodd; clip-rule:evenodd" xmlns:xlink="http://www.w3.org/1999/xlink">
<g><path style="opacity:1" fill="#fda2c5" d="M 1871.5,454.5 C 1851.26,470.909 1832.76,489.242 1816,509.5C 1815.56,512.611 1814.22,515.277 1812,517.5C 1804.34,523.156 1799.01,530.489 1796,539.5C 1793.63,543.597 1790.8,547.264 1787.5,550.5C 1781.5,558.347 1777,567.014 1774,576.5C 1772.33,577.5 1771,578.833 1770,580.5C 1766.76,585.722 1764.59,591.389 1763.5,597.5C 1761.19,604.75 1758.02,611.75 1754,618.5C 1750.93,634.364 1746.27,649.697 1740,664.5C 1738.25,678.191 1736.41,691.857 1734.5,705.5C 1733.88,705.611 1733.38,705.944 1733,706.5C 1732.33,733.5 1732.33,760.5 1733,787.5C 1733.38,788.056 1733.88,788.389 1734.5,788.5C 1735.26,796.492 1735.93,804.492 1736.5,812.5C 1736.95,820.632 1738.11,828.632 1740,836.5C 1742.97,846.659 1746.47,856.659 1750.5,866.5C 1750.5,867.167 1750.5,867.833 1750.5,868.5C 1713.13,882.735 1690.3,870.402 1682,831.5C 1680.34,822.238 1679.34,812.905 1679,803.5C 1678.67,751.5 1678.33,699.5 1678,647.5C 1675.21,624.086 1662.38,609.586 1639.5,604C 1612.22,598.888 1592.72,608.721 1581,633.5C 1579.52,638.406 1578.52,643.406 1578,648.5C 1577.33,714.5 1577.33,780.5 1578,846.5C 1578.91,869.807 1585.24,891.474 1597,911.5C 1614.42,934.972 1637.59,949.472 1666.5,955C 1706.81,961.773 1743.81,953.94 1777.5,931.5C 1801.52,972.081 1831.19,1008.58 1866.5,1041C 1867.45,1041.48 1868.45,1041.65 1869.5,1041.5C 1869.83,1042.17 1870.17,1042.83 1870.5,1043.5C 1778.71,1186.37 1649.04,1273.54 1481.5,1305C 1313.22,1329.77 1162.56,1289.77 1029.5,1185C 995.854,1156.69 965.687,1125.19 939,1090.5C 937.989,1091.34 936.822,1091.67 935.5,1091.5C 935.833,1090.83 936.167,1090.17 936.5,1089.5C 937.167,1089.5 937.833,1089.5 938.5,1089.5C 943.774,1085.9 948.441,1081.56 952.5,1076.5C 957.446,1071.73 962.612,1067.06 968,1062.5C 971.467,1058.88 974.3,1054.88 976.5,1050.5C 980.628,1047.71 983.628,1044.04 985.5,1039.5C 989.628,1036.71 992.628,1033.04 994.5,1028.5C 997.871,1025.13 1000.87,1021.46 1003.5,1017.5C 1004.25,1012.91 1006.75,1009.57 1011,1007.5C 1012.36,1004.31 1013.86,1001.31 1015.5,998.5C 1018.66,994.852 1021.33,990.852 1023.5,986.5C 1023.88,982.788 1025.54,979.788 1028.5,977.5C 1032.76,976.098 1034.59,973.098 1034,968.5C 1036.64,964.737 1038.81,960.737 1040.5,956.5C 1041.12,950.596 1043.46,945.596 1047.5,941.5C 1051.47,937.787 1053.64,933.12 1054,927.5C 1055.4,926.269 1056.57,924.936 1057.5,923.5C 1064.96,935.456 1074.62,945.289 1086.5,953C 1107.92,961.868 1127.08,958.368 1144,942.5C 1154.5,929.862 1157.5,915.529 1153,899.5C 1147.25,881.499 1142.92,863.166 1140,844.5C 1140.02,805.834 1140.02,767.167 1140,728.5C 1139.97,704.957 1135.63,682.291 1127,660.5C 1115.09,636.469 1096.26,620.803 1070.5,613.5C 1066.95,604.864 1063.95,595.864 1061.5,586.5C 1061.25,585.287 1060.59,584.62 1059.5,584.5C 1055.79,579.071 1053.12,573.071 1051.5,566.5C 1050.09,560.351 1047.59,554.684 1044,549.5C 1043.18,547.212 1042.51,544.878 1042,542.5C 1041.33,541.748 1040.5,541.414 1039.5,541.5C 1017.71,496.643 988.709,456.643 952.5,421.5C 948.773,416.77 944.44,412.77 939.5,409.5C 938.833,408.5 938.167,407.5 937.5,406.5C 1052.75,263.126 1202.92,188.46 1388,182.5C 1546.83,186.399 1682.16,244.066 1794,355.5C 1822.42,385.742 1847.59,418.409 1869.5,453.5C 1869.96,454.298 1870.62,454.631 1871.5,454.5 Z"/></g>
<g><path style="opacity:1" fill="#fec093" d="M 667.5,291.5 C 642.5,290.167 617.5,290.167 592.5,291.5C 598.266,290.012 604.266,289.178 610.5,289C 623.5,288.333 636.5,288.333 649.5,289C 655.734,289.178 661.734,290.012 667.5,291.5 Z"/></g>
<g><path style="opacity:1" fill="#fda666" d="M 667.5,291.5 C 667.833,291.5 668.167,291.5 668.5,291.5C 668.918,292.222 669.584,292.722 670.5,293C 682.489,294.366 694.489,295.532 706.5,296.5C 793.543,311.244 869.877,347.577 935.5,405.5C 930.285,412.876 924.785,420.209 919,427.5C 918.667,429.167 918.333,430.833 918,432.5C 913.186,438.803 909.02,445.469 905.5,452.5C 901.499,457.857 897.833,463.524 894.5,469.5C 893.675,470.386 892.675,470.719 891.5,470.5C 889.92,474.739 888.42,479.072 887,483.5C 883.585,486.592 881.419,490.426 880.5,495C 877.059,499.627 874.559,504.794 873,510.5C 871.847,513.47 870.18,516.137 868,518.5C 866.46,524.57 864.126,530.236 861,535.5C 858.902,541.023 857.402,546.689 856.5,552.5C 855.237,557.071 853.904,561.738 852.5,566.5C 851.249,568.382 850.082,570.382 849,572.5C 846.606,582.092 843.606,591.425 840,600.5C 838.097,609.847 836.264,619.18 834.5,628.5C 833.883,628.611 833.383,628.944 833,629.5C 830.002,647.829 827.002,666.163 824,684.5C 823.333,727.167 823.333,769.833 824,812.5C 824.608,814.154 825.108,815.821 825.5,817.5C 811.341,859.843 819.674,896.843 850.5,928.5C 855.726,944.078 861.56,959.411 868,974.5C 873.368,985.925 879.034,997.258 885,1008.5C 885.276,1013.67 887.276,1018.01 891,1021.5C 892.716,1024.64 894.049,1027.97 895,1031.5C 896.271,1032.88 897.771,1033.88 899.5,1034.5C 901.532,1039.23 904.532,1043.23 908.5,1046.5C 909.308,1048.42 909.808,1050.42 910,1052.5C 919.023,1064.69 927.856,1077.02 936.5,1089.5C 936.167,1090.17 935.833,1090.83 935.5,1091.5C 880.717,1141.4 817.05,1175.4 744.5,1193.5C 735.795,1194.67 727.128,1196.17 718.5,1198C 716.685,1198.76 715.019,1199.59 713.5,1200.5C 713.167,1200.5 712.833,1200.5 712.5,1200.5C 701.189,1201.08 690.189,1202.75 679.5,1205.5C 679.167,1205.5 678.833,1205.5 678.5,1205.5C 662.563,1207.25 646.563,1208.25 630.5,1208.5C 617.454,1208.55 604.454,1207.88 591.5,1206.5C 591.167,1206.5 590.833,1206.5 590.5,1206.5C 569.588,1203.29 548.588,1199.96 527.5,1196.5C 421.863,1171.62 335.363,1116.95 268,1032.5C 255.405,1016.41 244.239,999.412 234.5,981.5C 232.117,977.229 230.117,972.729 228.5,968C 227.59,966.251 226.257,965.084 224.5,964.5C 211.659,940.142 200.992,914.809 192.5,888.5C 191.887,880.68 189.887,873.346 186.5,866.5C 183.849,860.528 182.183,854.195 181.5,847.5C 181.184,842.156 180.684,836.822 180,831.5C 179.512,827.167 178.345,823.167 176.5,819.5C 175.189,814.964 174.523,810.297 174.5,805.5C 171.75,774.92 170.75,744.254 171.5,713.5C 176.137,688.686 180.47,663.686 184.5,638.5C 185.563,632.647 187.229,626.98 189.5,621.5C 192.935,610.381 197.101,599.381 202,588.5C 202.497,586.19 202.663,583.857 202.5,581.5C 257.66,447.511 353.993,357.345 491.5,311C 505.286,306.554 519.286,303.054 533.5,300.5C 547.361,298.69 561.028,296.357 574.5,293.5C 580.274,292.054 586.274,291.388 592.5,291.5C 617.5,290.167 642.5,290.167 667.5,291.5 Z"/></g>
<g><path style="opacity:1" fill="#febe90" d="M 668.5,291.5 C 681.446,292.065 694.112,293.732 706.5,296.5C 694.489,295.532 682.489,294.366 670.5,293C 669.584,292.722 668.918,292.222 668.5,291.5 Z"/></g>
<g><path style="opacity:1" fill="#febb8a" d="M 574.5,293.5 C 561.028,296.357 547.361,298.69 533.5,300.5C 546.806,296.786 560.473,294.453 574.5,293.5 Z"/></g>
<g><path style="opacity:1" fill="#8ad6ea" d="M 2483.5,667.5 C 2479.87,668.429 2476.21,669.263 2472.5,670C 2471.94,670.383 2471.61,670.883 2471.5,671.5C 2471.17,671.5 2470.83,671.5 2470.5,671.5C 2466.06,672.22 2462.39,674.22 2459.5,677.5C 2456.8,677.845 2454.8,679.178 2453.5,681.5C 2445.5,686.167 2439.17,692.5 2434.5,700.5C 2430.29,704.256 2427.62,708.923 2426.5,714.5C 2425.07,715.903 2423.9,717.569 2423,719.5C 2422.66,724.179 2421.33,728.512 2419,732.5C 2418.33,743.5 2418.33,754.5 2419,765.5C 2419.93,766.858 2420.77,768.192 2421.5,769.5C 2426.57,788.648 2436.91,804.315 2452.5,816.5C 2455.13,819.815 2458.46,822.149 2462.5,823.5C 2464.31,824.63 2466.31,825.296 2468.5,825.5C 2471.16,829.1 2474.82,830.767 2479.5,830.5C 2481.1,830.232 2482.43,830.566 2483.5,831.5C 2457.31,941.775 2395.31,1025.28 2297.5,1082C 2187.71,1139.58 2075.38,1144.92 1960.5,1098C 1928.33,1083.6 1898.66,1065.44 1871.5,1043.5C 1871.49,1041.69 1871.99,1040.02 1873,1038.5C 1877.79,1032.06 1882.12,1025.39 1886,1018.5C 1889.11,1013.17 1891.44,1007.51 1893,1001.5C 1895.24,998.14 1897.74,995.14 1900.5,992.5C 1904.6,985.303 1908.43,977.969 1912,970.5C 1912.37,963.386 1914.7,957.052 1919,951.5C 1921.2,946.58 1923.2,941.58 1925,936.5C 1925.84,930.823 1926.67,925.156 1927.5,919.5C 1928.93,918.22 1929.6,916.553 1929.5,914.5C 1932.48,908.07 1934.98,901.404 1937,894.5C 1939.38,883.419 1942.04,872.419 1945,861.5C 1947.97,837.117 1951.3,812.783 1955,788.5C 1955.67,759.167 1955.67,729.833 1955,700.5C 1954.09,697.018 1953.25,693.518 1952.5,690C 1952.68,688.624 1953.35,687.791 1954.5,687.5C 1959.17,687.5 1963.83,687.5 1968.5,687.5C 1968.33,744.168 1968.5,800.834 1969,857.5C 1969.3,874.132 1971.63,890.465 1976,906.5C 1984.5,930.503 2001,946.003 2025.5,953C 2033.06,954.978 2040.72,956.311 2048.5,957C 2068.57,958.046 2088.57,957.379 2108.5,955C 2122.98,952.425 2136.31,947.092 2148.5,939C 2160.38,927.684 2164.88,913.85 2162,897.5C 2153.85,875.336 2138.02,866.502 2114.5,871C 2105.54,872.716 2096.54,874.216 2087.5,875.5C 2080.83,875.416 2075.99,872.416 2073,866.5C 2071.01,859.639 2070.18,852.639 2070.5,845.5C 2070.5,793.167 2070.5,740.833 2070.5,688.5C 2075.69,688.821 2080.69,688.487 2085.5,687.5C 2101.34,687.671 2115.5,683.004 2128,673.5C 2131.39,669.391 2133.72,664.725 2135,659.5C 2139.37,633.561 2128.87,617.394 2103.5,611C 2092.17,610.5 2080.84,610.333 2069.5,610.5C 2069.67,586.831 2069.5,563.164 2069,539.5C 2067.21,514.046 2054.04,497.879 2029.5,491C 1990.91,487.917 1970.75,505.75 1969,544.5C 1968.5,566.497 1968.33,588.497 1968.5,610.5C 1959.49,609.892 1950.82,611.225 1942.5,614.5C 1941.15,613.829 1939.99,613.829 1939,614.5C 1938.67,613.833 1938.33,613.167 1938,612.5C 1934.82,596.957 1930.82,581.623 1926,566.5C 1925.15,565.429 1924.31,564.429 1923.5,563.5C 1918.26,549.636 1913.1,535.636 1908,521.5C 1905.43,515.926 1902.6,510.593 1899.5,505.5C 1899.66,504.127 1899.49,502.793 1899,501.5C 1895.42,495.091 1892.42,488.425 1890,481.5C 1887.05,477.249 1883.89,473.249 1880.5,469.5C 1881.08,466.45 1879.91,464.45 1877,463.5C 1876.55,459.925 1875.05,456.925 1872.5,454.5C 1976.73,374.287 2092.73,351.12 2220.5,385C 2329.36,419.189 2408.52,487.689 2458,590.5C 2469.35,615.201 2477.85,640.868 2483.5,667.5 Z"/></g>
<g><path style="opacity:1" fill="#fc6a4f" d="M 939.5,409.5 C 943.227,414.23 947.56,418.23 952.5,421.5C 988.709,456.643 1017.71,496.643 1039.5,541.5C 1039.15,547.148 1041.32,551.481 1046,554.5C 1047.03,558.894 1048.86,562.894 1051.5,566.5C 1053.12,573.071 1055.79,579.071 1059.5,584.5C 1061.56,592.668 1064.22,600.668 1067.5,608.5C 1067.36,610.03 1066.69,611.03 1065.5,611.5C 1026.29,602.175 986.627,600.008 946.5,605C 909.785,609.109 878.618,624.276 853,650.5C 838.932,668.04 832.932,688.04 835,710.5C 841.463,730.953 855.463,741.62 877,742.5C 889.718,743.601 900.051,739.268 908,729.5C 915.732,716.537 924.565,704.37 934.5,693C 943.705,685.066 954.372,680.399 966.5,679C 985.643,675.83 1004.31,677.497 1022.5,684C 1028.22,688.256 1032.39,693.756 1035,700.5C 1036.9,707.254 1038.4,714.087 1039.5,721C 1039.17,722.5 1038.83,724 1038.5,725.5C 995.327,737.636 951.661,747.802 907.5,756C 871.936,763.101 845.27,782.268 827.5,813.5C 826.792,809.215 826.292,804.882 826,800.5C 825.237,762.157 825.404,723.824 826.5,685.5C 830.501,662.251 835.001,638.917 840,615.5C 844.511,599.156 848.677,582.823 852.5,566.5C 853.904,561.738 855.237,557.071 856.5,552.5C 859.007,547.115 861.841,541.782 865,536.5C 872.704,513.762 883.037,492.429 896,472.5C 896.286,468.198 898.286,464.865 902,462.5C 903.47,459.256 904.637,455.923 905.5,452.5C 914.109,440.365 922.609,428.032 931,415.5C 933.237,413.353 935.237,411.02 937,408.5C 937.671,409.252 938.504,409.586 939.5,409.5 Z"/></g>
<g><path style="opacity:1" fill="#fd878c" d="M 939.5,409.5 C 944.44,412.77 948.773,416.77 952.5,421.5C 947.56,418.23 943.227,414.23 939.5,409.5 Z"/></g>
<g><path style="opacity:1" fill="#fd8e5e" d="M 935.5,405.5 C 936.167,405.833 936.833,406.167 937.5,406.5C 938.167,407.5 938.833,408.5 939.5,409.5C 938.504,409.586 937.671,409.252 937,408.5C 935.237,411.02 933.237,413.353 931,415.5C 922.609,428.032 914.109,440.365 905.5,452.5C 909.02,445.469 913.186,438.803 918,432.5C 918.333,430.833 918.667,429.167 919,427.5C 924.785,420.209 930.285,412.876 935.5,405.5 Z"/></g>
<g><path style="opacity:1" fill="#8989b5" d="M 1871.5,454.5 C 1871.83,454.5 1872.17,454.5 1872.5,454.5C 1875.05,456.925 1876.55,459.925 1877,463.5C 1879.91,464.45 1881.08,466.45 1880.5,469.5C 1881.73,474.288 1884.23,478.288 1888,481.5C 1888.47,486.06 1890.13,490.06 1893,493.5C 1894.37,496.726 1895.54,500.059 1896.5,503.5C 1897.36,504.425 1898.36,505.092 1899.5,505.5C 1899.96,507.55 1900.63,509.55 1901.5,511.5C 1900.43,516.734 1901.76,521.401 1905.5,525.5C 1908.52,534.726 1911.85,543.892 1915.5,553C 1916.01,554.169 1916.84,555.002 1918,555.5C 1918.45,561.388 1919.78,567.055 1922,572.5C 1925.23,576.398 1927.4,580.731 1928.5,585.5C 1931.54,595.916 1934.87,606.249 1938.5,616.5C 1923.88,626.767 1918.38,640.767 1922,658.5C 1926.66,672.324 1935.82,681.658 1949.5,686.5C 1952.42,715.081 1953.26,743.747 1952,772.5C 1950.13,791.175 1948.3,809.841 1946.5,828.5C 1944.93,841.892 1942.93,855.225 1940.5,868.5C 1937.69,877.013 1935.69,885.68 1934.5,894.5C 1933.79,896.378 1932.63,898.045 1931,899.5C 1930.07,905.607 1928.74,911.607 1927,917.5C 1926.05,920.355 1924.38,922.689 1922,924.5C 1920.85,929.618 1919.51,934.618 1918,939.5C 1917.33,940.167 1916.67,940.833 1916,941.5C 1912.16,952.566 1908.49,963.566 1905,974.5C 1904.36,976.303 1903.2,977.636 1901.5,978.5C 1901.15,981.309 1899.98,983.642 1898,985.5C 1897.4,990.447 1895.4,994.78 1892,998.5C 1884.57,1013 1877.07,1027.33 1869.5,1041.5C 1868.45,1041.65 1867.45,1041.48 1866.5,1041C 1831.19,1008.58 1801.52,972.081 1777.5,931.5C 1783.12,926.216 1788.79,920.883 1794.5,915.5C 1803.7,949.104 1825.37,962.271 1859.5,955C 1878.68,946.51 1888.85,931.677 1890,910.5C 1890.67,823.5 1890.67,736.5 1890,649.5C 1884.21,615.345 1864.05,600.179 1829.5,604C 1803.59,611.261 1790.42,628.428 1790,655.5C 1789.67,702.5 1789.33,749.5 1789,796.5C 1788.4,807.92 1787.06,819.254 1785,830.5C 1778.75,848.05 1767.25,860.717 1750.5,868.5C 1750.5,867.833 1750.5,867.167 1750.5,866.5C 1746.2,850.979 1742.7,835.313 1740,819.5C 1739.1,816.931 1737.93,814.598 1736.5,812.5C 1735.93,804.492 1735.26,796.492 1734.5,788.5C 1733.2,760.833 1733.2,733.166 1734.5,705.5C 1736.41,691.857 1738.25,678.191 1740,664.5C 1746.27,649.697 1750.93,634.364 1754,618.5C 1758.02,611.75 1761.19,604.75 1763.5,597.5C 1769.09,587.904 1774.59,578.238 1780,568.5C 1782.82,562.552 1785.32,556.552 1787.5,550.5C 1790.8,547.264 1793.63,543.597 1796,539.5C 1799.01,530.489 1804.34,523.156 1812,517.5C 1814.22,515.277 1815.56,512.611 1816,509.5C 1832.76,489.242 1851.26,470.909 1871.5,454.5 Z"/></g>
<g><path style="opacity:1" fill="#fd8e5c" d="M 905.5,452.5 C 904.637,455.923 903.47,459.256 902,462.5C 898.286,464.865 896.286,468.198 896,472.5C 883.037,492.429 872.704,513.762 865,536.5C 861.841,541.782 859.007,547.115 856.5,552.5C 857.402,546.689 858.902,541.023 861,535.5C 864.126,530.236 866.46,524.57 868,518.5C 870.18,516.137 871.847,513.47 873,510.5C 874.559,504.794 877.059,499.627 880.5,495C 881.419,490.426 883.585,486.592 887,483.5C 888.42,479.072 889.92,474.739 891.5,470.5C 892.675,470.719 893.675,470.386 894.5,469.5C 897.833,463.524 901.499,457.857 905.5,452.5 Z"/></g>
<g><path style="opacity:1" fill="#050304" d="M 1241.5,480.5 C 1260.1,477.445 1276.6,481.778 1291,493.5C 1299.77,503.471 1304.44,515.138 1305,528.5C 1305.33,564.833 1305.67,601.167 1306,637.5C 1340.02,607.78 1379.52,596.947 1424.5,605C 1470.74,614.576 1500.24,642.076 1513,687.5C 1515.21,699.4 1516.54,711.4 1517,723.5C 1517.67,785.167 1517.67,846.833 1517,908.5C 1515.75,934.56 1502.58,950.727 1477.5,957C 1442.41,962.223 1422.24,947.389 1417,912.5C 1416.67,858.5 1416.33,804.5 1416,750.5C 1415.78,734.149 1412.44,718.482 1406,703.5C 1396.7,691.109 1384.2,685.109 1368.5,685.5C 1339,688.838 1319.5,704.504 1310,732.5C 1307.73,743.05 1306.4,753.717 1306,764.5C 1305.67,812.167 1305.33,859.833 1305,907.5C 1300.67,946.146 1279.17,962.646 1240.5,957C 1219.42,951.243 1207.59,937.41 1205,915.5C 1204.33,784.5 1204.33,653.5 1205,522.5C 1208.17,500.404 1220.33,486.404 1241.5,480.5 Z"/></g>
<g><path style="opacity:1" fill="#050707" d="M 2213.5,483.5 C 2234.16,480.664 2251.66,486.664 2266,501.5C 2277.39,520.198 2278.39,539.531 2269,559.5C 2255.34,578.397 2236.84,585.897 2213.5,582C 2187.4,576.165 2174.07,559.832 2173.5,533C 2175.11,506.909 2188.44,490.409 2213.5,483.5 Z"/></g>
<g><path style="opacity:1" fill="#110b06" d="M 425.5,671.5 C 424.852,669.914 424.352,668.247 424,666.5C 423.5,744.499 423.333,822.499 423.5,900.5C 422.815,940.689 402.482,959.522 362.5,957C 343.117,951.95 330.617,939.784 325,920.5C 324.136,914.857 323.469,909.19 323,903.5C 322.333,781.833 322.333,660.167 323,538.5C 322.961,515.716 333.461,500.216 354.5,492C 360.696,490.027 367.029,488.694 373.5,488C 393.833,487.333 414.167,487.333 434.5,488C 450.694,487.849 463.861,494.015 474,506.5C 480.78,519.174 485.78,532.507 489,546.5C 508.149,618.763 527.149,691.096 546,763.5C 564.51,692.462 583.176,621.462 602,550.5C 605.365,535.068 610.698,520.401 618,506.5C 628.143,494.013 641.31,487.847 657.5,488C 679.863,487.091 702.196,487.424 724.5,489C 739.474,491.064 751.64,497.898 761,509.5C 764.522,515.399 766.855,521.732 768,528.5C 769.65,653.48 769.984,778.48 769,903.5C 765.333,946.168 742.5,963.334 700.5,955C 681.086,946.571 670.586,931.737 669,910.5C 668.667,828.833 668.333,747.167 668,665.5C 647.592,749.799 626.259,833.799 604,917.5C 591.195,948.658 568.028,961.825 534.5,957C 517.373,954.023 504.206,945.19 495,930.5C 490.748,922.078 487.082,913.412 484,904.5C 464.654,826.782 445.154,749.115 425.5,671.5 Z"/></g>
<g><path style="opacity:1" fill="#fefefe" d="M 1268.5,490.5 C 1277.36,494.699 1284.69,500.699 1290.5,508.5C 1290.18,511.481 1291.18,513.815 1293.5,515.5C 1293.57,518.428 1294.23,521.095 1295.5,523.5C 1295.33,569.835 1295.5,616.168 1296,662.5C 1296.72,661.956 1297.22,661.289 1297.5,660.5C 1308.82,647.043 1321.82,635.71 1336.5,626.5C 1339.48,625.674 1342.15,624.341 1344.5,622.5C 1353.05,620.204 1361.38,617.537 1369.5,614.5C 1386.78,612.294 1404.11,611.96 1421.5,613.5C 1425.62,614.943 1429.95,615.943 1434.5,616.5C 1459.8,625.133 1479.46,640.799 1493.5,663.5C 1495.93,669.357 1498.6,675.023 1501.5,680.5C 1503.9,690.519 1505.9,700.519 1507.5,710.5C 1508.5,775.665 1508.83,840.998 1508.5,906.5C 1507.38,910.295 1506.72,914.295 1506.5,918.5C 1498.08,941.888 1481.42,951.721 1456.5,948C 1452.39,946.905 1448.39,945.738 1444.5,944.5C 1436.62,938.392 1430.96,930.726 1427.5,921.5C 1427.66,918.813 1427.5,916.146 1427,913.5C 1426.72,912.584 1426.22,911.918 1425.5,911.5C 1425.67,855.166 1425.5,798.832 1425,742.5C 1424.67,738.5 1424.33,734.5 1424,730.5C 1423.72,729.584 1423.22,728.918 1422.5,728.5C 1422.68,724.878 1422.01,721.544 1420.5,718.5C 1419.57,717.432 1419.23,716.099 1419.5,714.5C 1417.69,703.046 1412.36,693.546 1403.5,686C 1402.26,685.209 1400.92,684.709 1399.5,684.5C 1397.36,681.387 1394.36,680.054 1390.5,680.5C 1388.16,678.96 1385.5,678.294 1382.5,678.5C 1378.1,676.967 1373.44,676.3 1368.5,676.5C 1365.17,676.667 1361.83,676.833 1358.5,677C 1357.58,677.278 1356.92,677.778 1356.5,678.5C 1353.5,678.294 1350.84,678.96 1348.5,680.5C 1341.44,681.694 1335.11,684.527 1329.5,689C 1314.74,699.247 1305.4,713.08 1301.5,730.5C 1301.78,732.415 1301.45,734.081 1300.5,735.5C 1299.78,735.918 1299.28,736.584 1299,737.5C 1298.5,741.486 1298.33,745.486 1298.5,749.5C 1297.69,751.631 1297.19,753.964 1297,756.5C 1296.5,806.832 1296.33,857.166 1296.5,907.5C 1296.8,910.059 1296.47,912.393 1295.5,914.5C 1291.99,930.006 1282.99,941.006 1268.5,947.5C 1260.19,948.288 1251.86,948.621 1243.5,948.5C 1241.56,946.837 1239.23,946.171 1236.5,946.5C 1222.72,938.64 1215.22,926.64 1214,910.5C 1213.5,782.167 1213.33,653.834 1213.5,525.5C 1214.79,521.687 1215.79,517.687 1216.5,513.5C 1227.49,492.364 1244.82,484.698 1268.5,490.5 Z"/></g>
<g><path style="opacity:1" fill="#040607" d="M 2085.5,687.5 C 2080.17,687.5 2074.83,687.5 2069.5,687.5C 2069.17,740.336 2069.5,793.003 2070.5,845.5C 2070.18,852.639 2071.01,859.639 2073,866.5C 2075.99,872.416 2080.83,875.416 2087.5,875.5C 2096.54,874.216 2105.54,872.716 2114.5,871C 2138.02,866.502 2153.85,875.336 2162,897.5C 2164.88,913.85 2160.38,927.684 2148.5,939C 2136.31,947.092 2122.98,952.425 2108.5,955C 2088.57,957.379 2068.57,958.046 2048.5,957C 2040.72,956.311 2033.06,954.978 2025.5,953C 2001,946.003 1984.5,930.503 1976,906.5C 1971.63,890.465 1969.3,874.132 1969,857.5C 1968.5,800.834 1968.33,744.168 1968.5,687.5C 1963.83,687.5 1959.17,687.5 1954.5,687.5C 1953.43,686.566 1952.1,686.232 1950.5,686.5C 1950.17,686.5 1949.83,686.5 1949.5,686.5C 1935.82,681.658 1926.66,672.324 1922,658.5C 1918.38,640.767 1923.88,626.767 1938.5,616.5C 1940.15,616.34 1941.49,615.674 1942.5,614.5C 1950.82,611.225 1959.49,609.892 1968.5,610.5C 1968.33,588.497 1968.5,566.497 1969,544.5C 1970.75,505.75 1990.91,487.917 2029.5,491C 2054.04,497.879 2067.21,514.046 2069,539.5C 2069.5,563.164 2069.67,586.831 2069.5,610.5C 2080.84,610.333 2092.17,610.5 2103.5,611C 2128.87,617.394 2139.37,633.561 2135,659.5C 2133.72,664.725 2131.39,669.391 2128,673.5C 2115.5,683.004 2101.34,687.671 2085.5,687.5 Z"/></g>
<g><path style="opacity:1" fill="#ab6f86" d="M 1268.5,490.5 C 1244.82,484.698 1227.49,492.364 1216.5,513.5C 1222.62,495.924 1235.12,487.591 1254,488.5C 1259.1,488.293 1263.94,488.96 1268.5,490.5 Z"/></g>
<g><path style="opacity:1" fill="#89b4d3" d="M 1880.5,469.5 C 1883.89,473.249 1887.05,477.249 1890,481.5C 1892.42,488.425 1895.42,495.091 1899,501.5C 1899.49,502.793 1899.66,504.127 1899.5,505.5C 1898.36,505.092 1897.36,504.425 1896.5,503.5C 1895.54,500.059 1894.37,496.726 1893,493.5C 1890.13,490.06 1888.47,486.06 1888,481.5C 1884.23,478.288 1881.73,474.288 1880.5,469.5 Z"/></g>
<g><path style="opacity:1" fill="#fdfefe" d="M 2233.5,492.5 C 2236.62,493.87 2239.95,494.87 2243.5,495.5C 2244.51,496.674 2245.85,497.34 2247.5,497.5C 2247.97,498.906 2248.97,499.573 2250.5,499.5C 2251.26,501.262 2252.6,502.262 2254.5,502.5C 2255.17,503.833 2256.17,504.833 2257.5,505.5C 2259.84,509.508 2262.17,513.508 2264.5,517.5C 2265.69,527.512 2265.69,537.512 2264.5,547.5C 2263.6,548.209 2263.26,549.209 2263.5,550.5C 2262.33,551.514 2261.66,552.847 2261.5,554.5C 2257.86,558.474 2254.19,562.474 2250.5,566.5C 2248.33,566.75 2246.66,567.75 2245.5,569.5C 2244.51,569.328 2243.84,569.662 2243.5,570.5C 2234.38,573.12 2225.04,574.12 2215.5,573.5C 2213.9,573.768 2212.57,573.434 2211.5,572.5C 2209.24,570.62 2206.58,569.62 2203.5,569.5C 2202.34,567.75 2200.67,566.75 2198.5,566.5C 2194.81,562.474 2191.14,558.474 2187.5,554.5C 2187.34,552.847 2186.67,551.514 2185.5,550.5C 2183.73,541.276 2183.06,531.942 2183.5,522.5C 2184.74,520.786 2185.41,518.786 2185.5,516.5C 2185.33,515.508 2185.66,514.842 2186.5,514.5C 2188.41,513.514 2189.41,511.848 2189.5,509.5C 2192.83,506.833 2195.83,503.833 2198.5,500.5C 2200.85,499.66 2202.85,498.326 2204.5,496.5C 2204.84,495.662 2205.51,495.328 2206.5,495.5C 2215.29,492.903 2224.29,491.903 2233.5,492.5 Z"/></g>
<g><path style="opacity:1" fill="#4c7680" d="M 2233.5,492.5 C 2224.29,491.903 2215.29,492.903 2206.5,495.5C 2209.14,493.672 2212.14,492.505 2215.5,492C 2221.68,491.181 2227.68,491.347 2233.5,492.5 Z"/></g>
<g><path style="opacity:1" fill="#517b86" d="M 2233.5,492.5 C 2237.29,492.32 2240.62,493.32 2243.5,495.5C 2239.95,494.87 2236.62,493.87 2233.5,492.5 Z"/></g>
<g><path style="opacity:1" fill="#fffefe" d="M 452.5,500.5 C 454.181,502.008 456.181,503.008 458.5,503.5C 461.862,507.192 465.195,510.859 468.5,514.5C 471.188,521.575 473.855,528.575 476.5,535.5C 476.41,538.152 477.076,540.485 478.5,542.5C 481.722,556.395 485.389,570.062 489.5,583.5C 489.41,586.152 490.076,588.485 491.5,590.5C 491.898,594.761 492.898,598.761 494.5,602.5C 494.41,605.152 495.076,607.485 496.5,609.5C 496.565,612.428 497.232,615.095 498.5,617.5C 498.41,620.152 499.076,622.485 500.5,624.5C 502.259,633.755 504.593,642.755 507.5,651.5C 507.41,654.152 508.076,656.485 509.5,658.5C 511.259,667.755 513.593,676.755 516.5,685.5C 516.41,688.152 517.076,690.485 518.5,692.5C 520.259,701.755 522.593,710.755 525.5,719.5C 525.41,722.152 526.076,724.485 527.5,726.5C 529.259,735.755 531.593,744.755 534.5,753.5C 534.41,756.152 535.076,758.485 536.5,760.5C 538.259,769.755 540.593,778.755 543.5,787.5C 543.41,790.152 544.076,792.485 545.5,794.5C 545.343,795.873 545.51,797.207 546,798.5C 546.977,796.26 547.477,793.927 547.5,791.5C 548.768,789.095 549.435,786.428 549.5,783.5C 550.924,781.485 551.59,779.152 551.5,776.5C 554.407,767.755 556.741,758.755 558.5,749.5C 559.924,747.485 560.59,745.152 560.5,742.5C 563.407,733.755 565.741,724.755 567.5,715.5C 568.924,713.485 569.59,711.152 569.5,708.5C 572.407,699.755 574.741,690.755 576.5,681.5C 577.924,679.485 578.59,677.152 578.5,674.5C 581.407,665.755 583.741,656.755 585.5,647.5C 586.924,645.485 587.59,643.152 587.5,640.5C 590.407,631.755 592.741,622.755 594.5,613.5C 595.924,611.485 596.59,609.152 596.5,606.5C 599.407,597.755 601.741,588.755 603.5,579.5C 604.924,577.485 605.59,575.152 605.5,572.5C 607.946,565.054 609.946,557.387 611.5,549.5C 612.924,547.485 613.59,545.152 613.5,542.5C 616.7,531.905 620.7,521.572 625.5,511.5C 628.5,509.167 631.167,506.5 633.5,503.5C 637.576,501.814 641.576,500.147 645.5,498.5C 669.117,496.498 692.783,495.998 716.5,497C 722.574,497.852 728.574,499.019 734.5,500.5C 737.515,502.674 740.849,504.341 744.5,505.5C 746.091,507.633 748.091,509.299 750.5,510.5C 750.738,512.404 751.738,513.738 753.5,514.5C 753.992,516.819 754.992,518.819 756.5,520.5C 758.297,526.36 759.464,532.36 760,538.5C 760.667,660.167 760.667,781.833 760,903.5C 759.462,908.171 758.962,912.838 758.5,917.5C 756.928,920.215 755.928,923.215 755.5,926.5C 753.917,928.663 752.584,930.996 751.5,933.5C 748.5,935.833 745.833,938.5 743.5,941.5C 740.331,942.917 737.331,944.583 734.5,946.5C 731.572,946.565 728.905,947.232 726.5,948.5C 721.167,948.5 715.833,948.5 710.5,948.5C 707.381,947.13 704.048,946.13 700.5,945.5C 699.101,944.11 697.434,943.11 695.5,942.5C 694.415,940.413 692.749,939.08 690.5,938.5C 683.646,929.927 679.312,920.261 677.5,909.5C 677.667,804.166 677.5,698.833 677,593.5C 676.023,595.74 675.523,598.073 675.5,600.5C 662.232,650.907 649.565,701.573 637.5,752.5C 630.409,777.196 624.076,802.196 618.5,827.5C 612.898,847.24 607.898,867.24 603.5,887.5C 602.076,889.515 601.41,891.848 601.5,894.5C 598.999,902.012 596.665,909.679 594.5,917.5C 592.992,919.181 591.992,921.181 591.5,923.5C 589.674,925.147 588.34,927.147 587.5,929.5C 581.674,936.004 575.008,941.337 567.5,945.5C 563.313,946.213 559.313,947.213 555.5,948.5C 545.306,949.105 535.306,948.105 525.5,945.5C 523.819,943.992 521.819,942.992 519.5,942.5C 517.45,940.453 515.117,938.786 512.5,937.5C 510.833,935.167 508.833,933.167 506.5,931.5C 503.163,925.492 499.83,919.492 496.5,913.5C 496.598,911.447 495.931,909.78 494.5,908.5C 494.59,905.848 493.924,903.515 492.5,901.5C 492.59,898.848 491.924,896.515 490.5,894.5C 490.435,891.572 489.768,888.905 488.5,886.5C 488.258,882.521 487.258,878.854 485.5,875.5C 476.102,835.24 466.102,795.24 455.5,755.5C 449.591,728.863 442.924,702.53 435.5,676.5C 429.768,650.907 423.435,625.573 416.5,600.5C 416.477,598.073 415.977,595.74 415,593.5C 414.5,698.833 414.333,804.166 414.5,909.5C 413.659,911.379 413.325,913.379 413.5,915.5C 412.13,918.619 411.13,921.952 410.5,925.5C 407.251,930.757 403.585,935.757 399.5,940.5C 397.147,941.34 395.147,942.674 393.5,944.5C 381.723,948.957 369.723,949.624 357.5,946.5C 355.819,944.992 353.819,943.992 351.5,943.5C 351.027,942.094 350.027,941.427 348.5,941.5C 346.167,938.5 343.5,935.833 340.5,933.5C 339.416,930.996 338.083,928.663 336.5,926.5C 336.072,923.215 335.072,920.215 333.5,917.5C 333.083,913.165 332.583,908.832 332,904.5C 331.333,782.5 331.333,660.5 332,538.5C 332.536,532.36 333.703,526.36 335.5,520.5C 337.008,518.819 338.008,516.819 338.5,514.5C 340.262,513.738 341.262,512.404 341.5,510.5C 342.5,510.167 343.167,509.5 343.5,508.5C 345.404,508.262 346.738,507.262 347.5,505.5C 351.151,504.341 354.485,502.674 357.5,500.5C 372.777,497.045 388.277,495.712 404,496.5C 420.382,495.735 436.549,497.068 452.5,500.5 Z"/></g>
<g><path style="opacity:1" fill="#537e89" d="M 2204.5,496.5 C 2202.85,498.326 2200.85,499.66 2198.5,500.5C 2199.8,498.178 2201.8,496.845 2204.5,496.5 Z"/></g>
<g><path style="opacity:1" fill="#527d89" d="M 2247.5,497.5 C 2249.03,497.427 2250.03,498.094 2250.5,499.5C 2248.97,499.573 2247.97,498.906 2247.5,497.5 Z"/></g>
<g><path style="opacity:1" fill="#fefefe" d="M 2010.5,499.5 C 2016.17,499.5 2021.83,499.5 2027.5,499.5C 2032.1,501.461 2036.77,503.461 2041.5,505.5C 2042.26,507.262 2043.6,508.262 2045.5,508.5C 2048.53,511.859 2051.53,515.192 2054.5,518.5C 2055.67,519.514 2056.34,520.847 2056.5,522.5C 2056.59,524.786 2057.26,526.786 2058.5,528.5C 2059.22,533.064 2059.88,537.731 2060.5,542.5C 2060.5,568.167 2060.5,593.833 2060.5,619.5C 2073.83,619.5 2087.17,619.5 2100.5,619.5C 2103.17,620.167 2105.83,620.833 2108.5,621.5C 2111.33,623.417 2114.33,625.083 2117.5,626.5C 2118.5,628.167 2119.83,629.5 2121.5,630.5C 2121.43,632.027 2122.09,633.027 2123.5,633.5C 2123.66,635.153 2124.33,636.486 2125.5,637.5C 2126.28,644.137 2126.61,650.804 2126.5,657.5C 2126.74,658.791 2126.4,659.791 2125.5,660.5C 2124.33,661.514 2123.66,662.847 2123.5,664.5C 2120.47,667.195 2117.47,669.862 2114.5,672.5C 2110.62,673.459 2106.95,674.792 2103.5,676.5C 2099.57,677.525 2095.57,678.192 2091.5,678.5C 2081.17,678.5 2070.83,678.5 2060.5,678.5C 2060.17,733.669 2060.5,788.669 2061.5,843.5C 2061.09,851.079 2061.76,858.412 2063.5,865.5C 2063.05,869.36 2064.39,872.36 2067.5,874.5C 2069.5,879.344 2073.17,882.011 2078.5,882.5C 2080.81,884.047 2083.47,884.713 2086.5,884.5C 2088.7,884.495 2090.7,884.162 2092.5,883.5C 2095.39,883.806 2098.05,883.473 2100.5,882.5C 2111.77,880.845 2123.1,879.845 2134.5,879.5C 2137.33,881.417 2140.33,883.083 2143.5,884.5C 2144.83,886.5 2146.5,888.167 2148.5,889.5C 2148.43,891.027 2149.09,892.027 2150.5,892.5C 2151.56,893.6 2152.39,894.934 2153,896.5C 2153.5,902.491 2153.67,908.491 2153.5,914.5C 2152.26,916.214 2151.59,918.214 2151.5,920.5C 2150.66,920.842 2150.33,921.508 2150.5,922.5C 2143.12,931.88 2133.78,938.546 2122.5,942.5C 2119.85,942.41 2117.51,943.076 2115.5,944.5C 2091.31,948.547 2066.98,949.547 2042.5,947.5C 2042.08,946.778 2041.42,946.278 2040.5,946C 2037.85,945.503 2035.19,945.336 2032.5,945.5C 2031.43,944.566 2030.1,944.232 2028.5,944.5C 2027.01,942.72 2025.01,942.054 2022.5,942.5C 2021.22,941.069 2019.55,940.402 2017.5,940.5C 2015.85,940.34 2014.51,939.674 2013.5,938.5C 2011.02,935.759 2008.02,933.759 2004.5,932.5C 2001.5,928.833 1998.17,925.5 1994.5,922.5C 1991.5,917.159 1988.5,911.825 1985.5,906.5C 1985.41,904.214 1984.74,902.214 1983.5,900.5C 1983.77,898.901 1983.43,897.568 1982.5,896.5C 1982.66,893.813 1982.5,891.146 1982,888.5C 1981.62,887.944 1981.12,887.611 1980.5,887.5C 1979.5,877.355 1978.5,867.355 1977.5,857.5C 1977.5,797.833 1977.5,738.167 1977.5,678.5C 1970.5,678.5 1963.5,678.5 1956.5,678.5C 1953.38,677.13 1950.05,676.13 1946.5,675.5C 1930.57,665.524 1926.4,651.857 1934,634.5C 1936,631.669 1938.17,629.003 1940.5,626.5C 1943.67,625.083 1946.67,623.417 1949.5,621.5C 1952.5,621.706 1955.16,621.04 1957.5,619.5C 1964.17,619.5 1970.83,619.5 1977.5,619.5C 1977.5,595.5 1977.5,571.5 1977.5,547.5C 1977.5,547.167 1977.5,546.833 1977.5,546.5C 1978.88,541.056 1979.55,535.389 1979.5,529.5C 1981.15,525.576 1982.81,521.576 1984.5,517.5C 1985.91,517.027 1986.57,516.027 1986.5,514.5C 1989.5,512.167 1992.17,509.5 1994.5,506.5C 1996.03,506.573 1997.03,505.906 1997.5,504.5C 1999.82,504.008 2001.82,503.008 2003.5,501.5C 2006.23,501.829 2008.56,501.163 2010.5,499.5 Z"/></g>
<g><path style="opacity:1" fill="#734f35" d="M 452.5,500.5 C 455.089,500.461 457.089,501.461 458.5,503.5C 456.181,503.008 454.181,502.008 452.5,500.5 Z"/></g>
<g><path style="opacity:1" fill="#6f4c33" d="M 645.5,498.5 C 641.576,500.147 637.576,501.814 633.5,503.5C 636.768,500.293 640.768,498.627 645.5,498.5 Z"/></g>
<g><path style="opacity:1" fill="#85abb6" d="M 2010.5,499.5 C 2008.56,501.163 2006.23,501.829 2003.5,501.5C 2005.51,500.076 2007.85,499.41 2010.5,499.5 Z"/></g>
<g><path style="opacity:1" fill="#527c88" d="M 2250.5,499.5 C 2252.4,499.738 2253.74,500.738 2254.5,502.5C 2252.6,502.262 2251.26,501.262 2250.5,499.5 Z"/></g>
<g><path style="opacity:1" fill="#6f4c32" d="M 357.5,500.5 C 354.485,502.674 351.151,504.341 347.5,505.5C 350.247,502.793 353.58,501.127 357.5,500.5 Z"/></g>
<g><path style="opacity:1" fill="#6e4b32" d="M 734.5,500.5 C 738.42,501.127 741.753,502.793 744.5,505.5C 740.849,504.341 737.515,502.674 734.5,500.5 Z"/></g>
<g><path style="opacity:1" fill="#4c7580" d="M 2003.5,501.5 C 2001.82,503.008 1999.82,504.008 1997.5,504.5C 1998.91,502.461 2000.91,501.461 2003.5,501.5 Z"/></g>
<g><path style="opacity:1" fill="#55808b" d="M 2027.5,499.5 C 2032.94,499.89 2037.6,501.89 2041.5,505.5C 2036.77,503.461 2032.1,501.461 2027.5,499.5 Z"/></g>
<g><path style="opacity:1" fill="#598691" d="M 2198.5,500.5 C 2195.83,503.833 2192.83,506.833 2189.5,509.5C 2191.5,505.5 2194.5,502.5 2198.5,500.5 Z"/></g>
<g><path style="opacity:1" fill="#7b563c" d="M 458.5,503.5 C 463.225,505.892 466.558,509.559 468.5,514.5C 465.195,510.859 461.862,507.192 458.5,503.5 Z"/></g>
<g><path style="opacity:1" fill="#af738a" d="M 1268.5,490.5 C 1274.28,491.444 1279.28,493.944 1283.5,498C 1286.47,501.128 1288.81,504.628 1290.5,508.5C 1284.69,500.699 1277.36,494.699 1268.5,490.5 Z"/></g>
<g><path style="opacity:1" fill="#598692" d="M 1997.5,504.5 C 1997.03,505.906 1996.03,506.573 1994.5,506.5C 1994.97,505.094 1995.97,504.427 1997.5,504.5 Z"/></g>
<g><path style="opacity:1" fill="#7d583d" d="M 347.5,505.5 C 346.738,507.262 345.404,508.262 343.5,508.5C 344.262,506.738 345.596,505.738 347.5,505.5 Z"/></g>
<g><path style="opacity:1" fill="#835d43" d="M 633.5,503.5 C 631.167,506.5 628.5,509.167 625.5,511.5C 627.167,507.833 629.833,505.167 633.5,503.5 Z"/></g>
<g><path style="opacity:1" fill="#537e89" d="M 2041.5,505.5 C 2043.4,505.738 2044.74,506.738 2045.5,508.5C 2043.6,508.262 2042.26,507.262 2041.5,505.5 Z"/></g>
<g><path style="opacity:1" fill="#537d88" d="M 2257.5,505.5 C 2261.36,508.55 2263.7,512.55 2264.5,517.5C 2262.17,513.508 2259.84,509.508 2257.5,505.5 Z"/></g>
<g><path style="opacity:1" fill="#56828e" d="M 1994.5,506.5 C 1992.17,509.5 1989.5,512.167 1986.5,514.5C 1988.17,510.833 1990.83,508.167 1994.5,506.5 Z"/></g>
<g><path style="opacity:1" fill="#49717c" d="M 2045.5,508.5 C 2049.89,510.562 2052.89,513.896 2054.5,518.5C 2051.53,515.192 2048.53,511.859 2045.5,508.5 Z"/></g>
<g><path style="opacity:1" fill="#7f593f" d="M 341.5,510.5 C 341.262,512.404 340.262,513.738 338.5,514.5C 338.738,512.596 339.738,511.262 341.5,510.5 Z"/></g>
<g><path style="opacity:1" fill="#815c41" d="M 750.5,510.5 C 752.262,511.262 753.262,512.596 753.5,514.5C 751.738,513.738 750.738,512.404 750.5,510.5 Z"/></g>
<g><path style="opacity:1" fill="#b87e94" d="M 1290.5,508.5 C 1292.29,510.426 1293.29,512.759 1293.5,515.5C 1291.18,513.815 1290.18,511.481 1290.5,508.5 Z"/></g>
<g><path style="opacity:1" fill="#8db0ba" d="M 2189.5,509.5 C 2189.41,511.848 2188.41,513.514 2186.5,514.5C 2186.75,512.326 2187.75,510.659 2189.5,509.5 Z"/></g>
<g><path style="opacity:1" fill="#6f4c31" d="M 338.5,514.5 C 338.008,516.819 337.008,518.819 335.5,520.5C 335.461,517.911 336.461,515.911 338.5,514.5 Z"/></g>
<g><path style="opacity:1" fill="#704d33" d="M 753.5,514.5 C 755.539,515.911 756.539,517.911 756.5,520.5C 754.992,518.819 753.992,516.819 753.5,514.5 Z"/></g>
<g><path style="opacity:1" fill="#9a6379" d="M 1216.5,513.5 C 1215.79,517.687 1214.79,521.687 1213.5,525.5C 1213.27,521.076 1214.27,517.076 1216.5,513.5 Z"/></g>
<g><path style="opacity:1" fill="#598692" d="M 1986.5,514.5 C 1986.57,516.027 1985.91,517.027 1984.5,517.5C 1984.43,515.973 1985.09,514.973 1986.5,514.5 Z"/></g>
<g><path style="opacity:1" fill="#507a85" d="M 1984.5,517.5 C 1982.81,521.576 1981.15,525.576 1979.5,529.5C 1979.63,524.768 1981.29,520.768 1984.5,517.5 Z"/></g>
<g><path style="opacity:1" fill="#4a727c" d="M 2185.5,516.5 C 2185.41,518.786 2184.74,520.786 2183.5,522.5C 2183.26,520.102 2183.93,518.102 2185.5,516.5 Z"/></g>
<g><path style="opacity:1" fill="#ab6e85" d="M 1293.5,515.5 C 1295.04,517.838 1295.71,520.505 1295.5,523.5C 1294.23,521.095 1293.57,518.428 1293.5,515.5 Z"/></g>
<g><path style="opacity:1" fill="#4e7781" d="M 2056.5,522.5 C 2058.07,524.102 2058.74,526.102 2058.5,528.5C 2057.26,526.786 2056.59,524.786 2056.5,522.5 Z"/></g>
<g><path style="opacity:1" fill="#8cb7c2" d="M 2264.5,517.5 C 2266.05,522.401 2266.72,527.568 2266.5,533C 2266.33,536.833 2266.17,540.667 2266,544.5C 2265.77,545.737 2265.27,546.737 2264.5,547.5C 2265.69,537.512 2265.69,527.512 2264.5,517.5 Z"/></g>
<g><path style="opacity:1" fill="#9b6479" d="M 1296.5,530.5 C 1297.33,572.665 1297.83,614.998 1298,657.5C 1305.2,649.969 1312.7,642.802 1320.5,636C 1325.39,632.055 1330.73,628.888 1336.5,626.5C 1321.82,635.71 1308.82,647.043 1297.5,660.5C 1296.5,617.337 1296.17,574.003 1296.5,530.5 Z"/></g>
<g><path style="opacity:1" fill="#6e4b32" d="M 476.5,535.5 C 477.924,537.515 478.59,539.848 478.5,542.5C 477.076,540.485 476.41,538.152 476.5,535.5 Z"/></g>
<g><path style="opacity:1" fill="#fcd5e2" d="M 1295.5,523.5 C 1296.47,525.607 1296.8,527.941 1296.5,530.5C 1296.17,574.003 1296.5,617.337 1297.5,660.5C 1297.22,661.289 1296.72,661.956 1296,662.5C 1295.5,616.168 1295.33,569.835 1295.5,523.5 Z"/></g>
<g><path style="opacity:1" fill="#66919d" d="M 2183.5,522.5 C 2183.06,531.942 2183.73,541.276 2185.5,550.5C 2184.07,548.852 2183.24,546.852 2183,544.5C 2182.18,536.988 2182.34,529.655 2183.5,522.5 Z"/></g>
<g><path style="opacity:1" fill="#6a939e" d="M 1979.5,529.5 C 1979.55,535.389 1978.88,541.056 1977.5,546.5C 1977.13,540.57 1977.79,534.903 1979.5,529.5 Z"/></g>
<g><path style="opacity:1" fill="#704c33" d="M 613.5,542.5 C 613.59,545.152 612.924,547.485 611.5,549.5C 611.41,546.848 612.076,544.515 613.5,542.5 Z"/></g>
<g><path style="opacity:1" fill="#fd796f" d="M 1039.5,541.5 C 1040.5,541.414 1041.33,541.748 1042,542.5C 1042.51,544.878 1043.18,547.212 1044,549.5C 1047.59,554.684 1050.09,560.351 1051.5,566.5C 1048.86,562.894 1047.03,558.894 1046,554.5C 1041.32,551.481 1039.15,547.148 1039.5,541.5 Z"/></g>
<g><path style="opacity:1" fill="#4e7984" d="M 2185.5,550.5 C 2186.67,551.514 2187.34,552.847 2187.5,554.5C 2185.9,553.713 2185.23,552.38 2185.5,550.5 Z"/></g>
<g><path style="opacity:1" fill="#4c7681" d="M 2263.5,550.5 C 2263.77,552.38 2263.1,553.713 2261.5,554.5C 2261.66,552.847 2262.33,551.514 2263.5,550.5 Z"/></g>
<g><path style="opacity:1" fill="#8998c0" d="M 1899.5,505.5 C 1902.6,510.593 1905.43,515.926 1908,521.5C 1913.1,535.636 1918.26,549.636 1923.5,563.5C 1924.96,570.929 1926.62,578.262 1928.5,585.5C 1927.4,580.731 1925.23,576.398 1922,572.5C 1919.78,567.055 1918.45,561.388 1918,555.5C 1916.84,555.002 1916.01,554.169 1915.5,553C 1911.85,543.892 1908.52,534.726 1905.5,525.5C 1901.76,521.401 1900.43,516.734 1901.5,511.5C 1900.63,509.55 1899.96,507.55 1899.5,505.5 Z"/></g>
<g><path style="opacity:1" fill="#5b8793" d="M 2187.5,554.5 C 2191.14,558.474 2194.81,562.474 2198.5,566.5C 2193.44,563.777 2189.78,559.777 2187.5,554.5 Z"/></g>
<g><path style="opacity:1" fill="#537d89" d="M 2261.5,554.5 C 2259.22,559.777 2255.56,563.777 2250.5,566.5C 2254.19,562.474 2257.86,558.474 2261.5,554.5 Z"/></g>
<g><path style="opacity:1" fill="#466d77" d="M 1977.5,547.5 C 1977.5,571.5 1977.5,595.5 1977.5,619.5C 1970.83,619.5 1964.17,619.5 1957.5,619.5C 1963.64,618.51 1969.98,618.177 1976.5,618.5C 1976.17,594.661 1976.5,570.994 1977.5,547.5 Z"/></g>
<g><path style="opacity:1" fill="#517e89" d="M 2060.5,542.5 C 2061.5,567.661 2061.83,592.995 2061.5,618.5C 2074.68,618.171 2087.68,618.505 2100.5,619.5C 2087.17,619.5 2073.83,619.5 2060.5,619.5C 2060.5,593.833 2060.5,568.167 2060.5,542.5 Z"/></g>
<g><path style="opacity:1" fill="#55808b" d="M 2198.5,566.5 C 2200.67,566.75 2202.34,567.75 2203.5,569.5C 2201.33,569.25 2199.66,568.25 2198.5,566.5 Z"/></g>
<g><path style="opacity:1" fill="#5a8792" d="M 2250.5,566.5 C 2249.34,568.25 2247.67,569.25 2245.5,569.5C 2246.66,567.75 2248.33,566.75 2250.5,566.5 Z"/></g>
<g><path style="opacity:1" fill="#5e858f" d="M 2203.5,569.5 C 2206.58,569.62 2209.24,570.62 2211.5,572.5C 2208.35,572.585 2205.68,571.585 2203.5,569.5 Z"/></g>
<g><path style="opacity:1" fill="#724e34" d="M 605.5,572.5 C 605.59,575.152 604.924,577.485 603.5,579.5C 603.41,576.848 604.076,574.515 605.5,572.5 Z"/></g>
<g><path style="opacity:1" fill="#4d7681" d="M 2243.5,570.5 C 2240.86,572.328 2237.86,573.495 2234.5,574C 2227.99,574.82 2221.65,574.653 2215.5,573.5C 2225.04,574.12 2234.38,573.12 2243.5,570.5 Z"/></g>
<g><path style="opacity:1" fill="#b893bc" d="M 1787.5,550.5 C 1785.32,556.552 1782.82,562.552 1780,568.5C 1774.59,578.238 1769.09,587.904 1763.5,597.5C 1764.59,591.389 1766.76,585.722 1770,580.5C 1771,578.833 1772.33,577.5 1774,576.5C 1777,567.014 1781.5,558.347 1787.5,550.5 Z"/></g>
<g><path style="opacity:1" fill="#89b1d0" d="M 1923.5,563.5 C 1924.31,564.429 1925.15,565.429 1926,566.5C 1930.82,581.623 1934.82,596.957 1938,612.5C 1938.33,613.167 1938.67,613.833 1939,614.5C 1939.99,613.829 1941.15,613.829 1942.5,614.5C 1941.49,615.674 1940.15,616.34 1938.5,616.5C 1934.87,606.249 1931.54,595.916 1928.5,585.5C 1926.62,578.262 1924.96,570.929 1923.5,563.5 Z"/></g>
<g><path style="opacity:1" fill="#6f4c32" d="M 489.5,583.5 C 490.924,585.515 491.59,587.848 491.5,590.5C 490.076,588.485 489.41,586.152 489.5,583.5 Z"/></g>
<g><path style="opacity:1" fill="#f58893" d="M 1059.5,584.5 C 1060.59,584.62 1061.25,585.287 1061.5,586.5C 1063.95,595.864 1066.95,604.864 1070.5,613.5C 1068.6,613.204 1066.93,612.537 1065.5,611.5C 1066.69,611.03 1067.36,610.03 1067.5,608.5C 1064.22,600.668 1061.56,592.668 1059.5,584.5 Z"/></g>
<g><path style="opacity:1" fill="#8a644a" d="M 416.5,600.5 C 415.833,703.5 415.167,806.5 414.5,909.5C 414.333,804.166 414.5,698.833 415,593.5C 415.977,595.74 416.477,598.073 416.5,600.5 Z"/></g>
<g><path style="opacity:1" fill="#7f5a3f" d="M 677.5,909.5 C 676.833,806.5 676.167,703.5 675.5,600.5C 675.523,598.073 676.023,595.74 677,593.5C 677.5,698.833 677.667,804.166 677.5,909.5 Z"/></g>
<g><path style="opacity:0.796" fill="#febb8a" d="M 202.5,581.5 C 202.663,583.857 202.497,586.19 202,588.5C 197.101,599.381 192.935,610.381 189.5,621.5C 189.804,618.478 190.304,615.478 191,612.5C 194.896,602.069 198.729,591.735 202.5,581.5 Z"/></g>
<g><path style="opacity:1" fill="#100706" d="M 1065.5,611.5 C 1066.93,612.537 1068.6,613.204 1070.5,613.5C 1096.26,620.803 1115.09,636.469 1127,660.5C 1135.63,682.291 1139.97,704.957 1140,728.5C 1140.02,767.167 1140.02,805.834 1140,844.5C 1142.92,863.166 1147.25,881.499 1153,899.5C 1157.5,915.529 1154.5,929.862 1144,942.5C 1127.08,958.368 1107.92,961.868 1086.5,953C 1074.62,945.289 1064.96,935.456 1057.5,923.5C 1057.17,922.5 1056.5,921.833 1055.5,921.5C 1054.89,919.277 1053.55,917.611 1051.5,916.5C 1021.66,939.502 987.997,953.002 950.5,957C 921.901,960.29 894.901,955.29 869.5,942C 863.393,938.388 857.727,934.221 852.5,929.5C 851.833,929.167 851.167,928.833 850.5,928.5C 819.674,896.843 811.341,859.843 825.5,817.5C 826.674,816.486 827.34,815.153 827.5,813.5C 845.27,782.268 871.936,763.101 907.5,756C 951.661,747.802 995.327,737.636 1038.5,725.5C 1038.83,724 1039.17,722.5 1039.5,721C 1038.4,714.087 1036.9,707.254 1035,700.5C 1032.39,693.756 1028.22,688.256 1022.5,684C 1004.31,677.497 985.643,675.83 966.5,679C 954.372,680.399 943.705,685.066 934.5,693C 924.565,704.37 915.732,716.537 908,729.5C 900.051,739.268 889.718,743.601 877,742.5C 855.463,741.62 841.463,730.953 835,710.5C 832.932,688.04 838.932,668.04 853,650.5C 878.618,624.276 909.785,609.109 946.5,605C 986.627,600.008 1026.29,602.175 1065.5,611.5 Z"/></g>
<g><path style="opacity:1" fill="#080709" d="M 1750.5,868.5 C 1767.25,860.717 1778.75,848.05 1785,830.5C 1787.06,819.254 1788.4,807.92 1789,796.5C 1789.33,749.5 1789.67,702.5 1790,655.5C 1790.42,628.428 1803.59,611.261 1829.5,604C 1864.05,600.179 1884.21,615.345 1890,649.5C 1890.67,736.5 1890.67,823.5 1890,910.5C 1888.85,931.677 1878.68,946.51 1859.5,955C 1825.37,962.271 1803.7,949.104 1794.5,915.5C 1788.79,920.883 1783.12,926.216 1777.5,931.5C 1743.81,953.94 1706.81,961.773 1666.5,955C 1637.59,949.472 1614.42,934.972 1597,911.5C 1585.24,891.474 1578.91,869.807 1578,846.5C 1577.33,780.5 1577.33,714.5 1578,648.5C 1578.52,643.406 1579.52,638.406 1581,633.5C 1592.72,608.721 1612.22,598.888 1639.5,604C 1662.38,609.586 1675.21,624.086 1678,647.5C 1678.33,699.5 1678.67,751.5 1679,803.5C 1679.34,812.905 1680.34,822.238 1682,831.5C 1690.3,870.402 1713.13,882.735 1750.5,868.5 Z"/></g>
<g><path style="opacity:1" fill="#080c0d" d="M 2212.5,603.5 C 2249.15,600.008 2269.98,616.342 2275,652.5C 2275.98,739.521 2275.64,826.521 2274,913.5C 2270.7,936.465 2257.87,950.965 2235.5,957C 2196.44,960.023 2175.94,941.857 2174,902.5C 2173.04,816.485 2173.37,730.485 2175,644.5C 2179.07,622.94 2191.57,609.274 2212.5,603.5 Z"/></g>
<g><path style="opacity:1" fill="#fd7d56" d="M 852.5,566.5 C 848.677,582.823 844.511,599.156 840,615.5C 835.001,638.917 830.501,662.251 826.5,685.5C 829.155,666.578 831.822,647.578 834.5,628.5C 836.264,619.18 838.097,609.847 840,600.5C 843.606,591.425 846.606,582.092 849,572.5C 850.082,570.382 851.249,568.382 852.5,566.5 Z"/></g>
<g><path style="opacity:1" fill="#724e34" d="M 596.5,606.5 C 596.59,609.152 595.924,611.485 594.5,613.5C 594.41,610.848 595.076,608.515 596.5,606.5 Z"/></g>
<g><path style="opacity:1" fill="#724f35" d="M 494.5,602.5 C 495.924,604.515 496.59,606.848 496.5,609.5C 495.076,607.485 494.41,605.152 494.5,602.5 Z"/></g>
<g><path style="opacity:1" fill="#fefefe" d="M 1049.5,616.5 C 1053.24,618.102 1057.24,619.102 1061.5,619.5C 1064.22,621.072 1067.22,622.072 1070.5,622.5C 1089.09,629.969 1104.09,641.969 1115.5,658.5C 1116.33,661.485 1117.66,664.151 1119.5,666.5C 1122.4,675.19 1125.07,683.857 1127.5,692.5C 1127.4,699.465 1128.4,706.132 1130.5,712.5C 1131.5,756.664 1131.83,800.997 1131.5,845.5C 1131.3,850.75 1131.97,855.75 1133.5,860.5C 1134.25,868.82 1136.25,876.82 1139.5,884.5C 1139.41,887.152 1140.08,889.485 1141.5,891.5C 1141.41,894.152 1142.08,896.485 1143.5,898.5C 1144.43,899.568 1144.77,900.901 1144.5,902.5C 1148.03,926.49 1138.03,941.657 1114.5,948C 1105.14,949.801 1096.47,948.135 1088.5,943C 1078.55,934.551 1069.89,925.051 1062.5,914.5C 1061.23,910.946 1059.23,907.946 1056.5,905.5C 1055.12,901.648 1053.46,901.648 1051.5,905.5C 1041.49,912.17 1031.49,918.836 1021.5,925.5C 1013.85,928.659 1006.52,932.325 999.5,936.5C 997.447,936.402 995.78,937.069 994.5,938.5C 990.216,939.261 986.216,940.595 982.5,942.5C 959.457,948.372 936.124,949.872 912.5,947C 894.171,943.953 877.504,937.12 862.5,926.5C 861.415,924.413 859.749,923.08 857.5,922.5C 855.5,919.833 853.167,917.5 850.5,915.5C 848.542,912.208 846.209,909.208 843.5,906.5C 838.678,898.524 834.678,890.191 831.5,881.5C 831.435,878.572 830.768,875.905 829.5,873.5C 826.942,855.394 828.609,837.728 834.5,820.5C 836.674,817.485 838.341,814.151 839.5,810.5C 842.241,808.025 844.241,805.025 845.5,801.5C 850.833,796.833 855.833,791.833 860.5,786.5C 864.777,784.218 868.777,781.551 872.5,778.5C 876.818,777.008 880.818,775.008 884.5,772.5C 889.393,771.204 894.06,769.538 898.5,767.5C 901.152,767.59 903.485,766.924 905.5,765.5C 948.741,757.855 991.408,748.188 1033.5,736.5C 1036.15,736.59 1038.49,735.924 1040.5,734.5C 1043.15,734.59 1045.49,733.924 1047.5,732.5C 1048.75,731.666 1049.41,730.333 1049.5,728.5C 1049.49,726.955 1049.16,725.622 1048.5,724.5C 1048.39,714.631 1046.39,705.297 1042.5,696.5C 1041.87,692.58 1040.21,689.247 1037.5,686.5C 1035.11,681.775 1031.44,678.442 1026.5,676.5C 1018.27,671.707 1009.27,669.207 999.5,669C 985.897,667.907 972.564,668.741 959.5,671.5C 956.505,671.294 953.838,671.96 951.5,673.5C 950.209,673.263 949.209,673.596 948.5,674.5C 944.58,675.127 941.247,676.793 938.5,679.5C 935.63,680.433 933.296,682.1 931.5,684.5C 926.833,687.167 923.167,690.833 920.5,695.5C 918.738,696.262 917.738,697.596 917.5,699.5C 914.723,701.951 912.723,704.951 911.5,708.5C 907.443,713.59 903.61,718.923 900,724.5C 897.931,727.406 895.431,729.739 892.5,731.5C 888.64,731.808 884.974,732.475 881.5,733.5C 875.762,733.377 870.096,732.71 864.5,731.5C 862.151,729.659 859.485,728.326 856.5,727.5C 853.264,724.719 850.264,721.719 847.5,718.5C 847.008,716.181 846.008,714.181 844.5,712.5C 843.65,705.201 843.317,697.868 843.5,690.5C 846.664,678.172 851.997,666.838 859.5,656.5C 863.833,652.833 867.833,648.833 871.5,644.5C 876.871,640.821 882.204,637.154 887.5,633.5C 892.484,631.674 897.151,629.341 901.5,626.5C 904.157,626.065 906.491,625.065 908.5,623.5C 912.784,622.739 916.784,621.405 920.5,619.5C 963.267,609.956 1006.27,608.956 1049.5,616.5 Z"/></g>
<g><path style="opacity:1" fill="#ae7289" d="M 1421.5,613.5 C 1404.11,611.96 1386.78,612.294 1369.5,614.5C 1373.26,613.168 1377.26,612.335 1381.5,612C 1387.17,611.833 1392.83,611.667 1398.5,611.5C 1406.4,611.282 1414.07,611.949 1421.5,613.5 Z"/></g>
<g><path style="opacity:1" fill="#4d7782" d="M 2233.5,612.5 C 2225.8,612.354 2218.14,612.687 2210.5,613.5C 2214.73,611.975 2219.23,611.308 2224,611.5C 2227.35,611.502 2230.52,611.835 2233.5,612.5 Z"/></g>
<g><path style="opacity:1" fill="#fefdfe" d="M 1637.5,612.5 C 1639.1,612.232 1640.43,612.566 1641.5,613.5C 1657.16,620.502 1666.49,632.502 1669.5,649.5C 1670.33,705.999 1670.83,762.665 1671,819.5C 1671.18,822.365 1671.68,825.031 1672.5,827.5C 1672.57,834.214 1673.91,840.548 1676.5,846.5C 1677.51,852.192 1679.85,857.192 1683.5,861.5C 1689.99,873.303 1699.99,879.97 1713.5,881.5C 1717.74,882.968 1722.24,883.634 1727,883.5C 1729.83,883.333 1732.67,883.167 1735.5,883C 1736.42,882.722 1737.08,882.222 1737.5,881.5C 1743.79,881.454 1749.46,879.788 1754.5,876.5C 1767.95,870.215 1778.79,860.882 1787,848.5C 1790.17,843.166 1792.5,837.499 1794,831.5C 1796.28,819.945 1797.62,808.278 1798,796.5C 1798.33,749.167 1798.67,701.833 1799,654.5C 1799.74,644.777 1802.58,635.777 1807.5,627.5C 1810.5,625.167 1813.17,622.5 1815.5,619.5C 1832.24,610.003 1848.9,610.17 1865.5,620C 1873.31,626.78 1878.14,635.28 1880,645.5C 1881.65,733.474 1881.98,821.474 1881,909.5C 1880.23,923.039 1874.73,934.039 1864.5,942.5C 1861.52,943.326 1858.85,944.659 1856.5,946.5C 1840.56,950.85 1826.56,947.516 1814.5,936.5C 1813.21,933.883 1811.55,931.55 1809.5,929.5C 1804.88,917.645 1802.71,905.311 1803,892.5C 1800.55,894.441 1798.71,896.775 1797.5,899.5C 1790.83,905.5 1784.5,911.833 1778.5,918.5C 1760.78,932.691 1740.78,942.025 1718.5,946.5C 1710.22,947.986 1701.72,948.652 1693,948.5C 1687.32,948.499 1681.82,948.166 1676.5,947.5C 1667.2,945.508 1657.86,943.174 1648.5,940.5C 1646.57,938.707 1644.24,937.707 1641.5,937.5C 1638.99,935.076 1635.99,933.41 1632.5,932.5C 1630.85,930.674 1628.85,929.34 1626.5,928.5C 1609.33,914.821 1597.67,897.487 1591.5,876.5C 1590.09,873.781 1589.42,870.781 1589.5,867.5C 1588.46,859.869 1587.79,852.202 1587.5,844.5C 1587.19,776.488 1587.53,708.488 1588.5,640.5C 1590.02,638.11 1591.02,635.443 1591.5,632.5C 1602.36,616.078 1617.7,609.411 1637.5,612.5 Z"/></g>
<g><path style="opacity:1" fill="#fdfefe" d="M 2233.5,612.5 C 2236.22,614.072 2239.22,615.072 2242.5,615.5C 2242.84,616.338 2243.51,616.672 2244.5,616.5C 2246.15,618.326 2248.15,619.66 2250.5,620.5C 2252.5,623.167 2254.83,625.5 2257.5,627.5C 2257.43,629.027 2258.09,630.027 2259.5,630.5C 2259.99,632.819 2260.99,634.819 2262.5,636.5C 2263.13,640.048 2264.13,643.381 2265.5,646.5C 2266.67,731.999 2266.83,817.666 2266,903.5C 2265.46,908.171 2264.96,912.838 2264.5,917.5C 2263.26,919.214 2262.59,921.214 2262.5,923.5C 2260.66,925.849 2259.33,928.515 2258.5,931.5C 2256.74,932.262 2255.74,933.596 2255.5,935.5C 2253.83,936.5 2252.5,937.833 2251.5,939.5C 2248.32,941.255 2245.32,943.255 2242.5,945.5C 2233.71,948.097 2224.71,949.097 2215.5,948.5C 2213.4,947.388 2211.07,946.721 2208.5,946.5C 2206.82,944.992 2204.82,943.992 2202.5,943.5C 2202.03,942.094 2201.03,941.427 2199.5,941.5C 2197.5,938.833 2195.17,936.5 2192.5,934.5C 2192.57,932.973 2191.91,931.973 2190.5,931.5C 2189.67,928.515 2188.34,925.849 2186.5,923.5C 2186.41,921.214 2185.74,919.214 2184.5,917.5C 2184,912.508 2183.5,907.508 2183,902.5C 2182.33,817.5 2182.33,732.5 2183,647.5C 2183.2,645.618 2183.7,643.952 2184.5,642.5C 2185.74,640.786 2186.41,638.786 2186.5,636.5C 2188.34,634.151 2189.67,631.485 2190.5,628.5C 2194.17,625.5 2197.5,622.167 2200.5,618.5C 2202.67,618.25 2204.34,617.25 2205.5,615.5C 2207.55,615.598 2209.22,614.931 2210.5,613.5C 2218.14,612.687 2225.8,612.354 2233.5,612.5 Z"/></g>
<g><path style="opacity:1" fill="#58838e" d="M 2233.5,612.5 C 2236.92,612.528 2239.92,613.528 2242.5,615.5C 2239.22,615.072 2236.22,614.072 2233.5,612.5 Z"/></g>
<g><path style="opacity:1" fill="#a76c82" d="M 1421.5,613.5 C 1426.19,613.425 1430.53,614.425 1434.5,616.5C 1429.95,615.943 1425.62,614.943 1421.5,613.5 Z"/></g>
<g><path style="opacity:1" fill="#b2748c" d="M 1637.5,612.5 C 1617.7,609.411 1602.36,616.078 1591.5,632.5C 1596.49,621.152 1605.16,614.319 1617.5,612C 1624.35,611.179 1631.01,611.346 1637.5,612.5 Z"/></g>
<g><path style="opacity:1" fill="#517c87" d="M 2210.5,613.5 C 2209.22,614.931 2207.55,615.598 2205.5,615.5C 2206.78,614.069 2208.45,613.402 2210.5,613.5 Z"/></g>
<g><path style="opacity:1" fill="#61322a" d="M 1049.5,616.5 C 1053.84,616.584 1057.84,617.584 1061.5,619.5C 1057.24,619.102 1053.24,618.102 1049.5,616.5 Z"/></g>
<g><path style="opacity:1" fill="#55818c" d="M 2205.5,615.5 C 2204.34,617.25 2202.67,618.25 2200.5,618.5C 2201.66,616.75 2203.33,615.75 2205.5,615.5 Z"/></g>
<g><path style="opacity:1" fill="#598692" d="M 2244.5,616.5 C 2247.2,616.845 2249.2,618.178 2250.5,620.5C 2248.15,619.66 2246.15,618.326 2244.5,616.5 Z"/></g>
<g><path style="opacity:1" fill="#704c33" d="M 498.5,617.5 C 499.924,619.515 500.59,621.848 500.5,624.5C 499.076,622.485 498.41,620.152 498.5,617.5 Z"/></g>
<g><path style="opacity:1" fill="#b87c93" d="M 1369.5,614.5 C 1361.38,617.537 1353.05,620.204 1344.5,622.5C 1352.24,618.255 1360.57,615.589 1369.5,614.5 Z"/></g>
<g><path style="opacity:1" fill="#613229" d="M 920.5,619.5 C 916.784,621.405 912.784,622.739 908.5,623.5C 912.085,621.194 916.085,619.861 920.5,619.5 Z"/></g>
<g><path style="opacity:1" fill="#739da9" d="M 1957.5,619.5 C 1955.16,621.04 1952.5,621.706 1949.5,621.5C 1951.84,619.96 1954.5,619.294 1957.5,619.5 Z"/></g>
<g><path style="opacity:1" fill="#476e78" d="M 2250.5,620.5 C 2253.83,621.833 2256.17,624.167 2257.5,627.5C 2254.83,625.5 2252.5,623.167 2250.5,620.5 Z"/></g>
<g><path style="opacity:1" fill="#b67890" d="M 1434.5,616.5 C 1456.12,621.954 1473.62,633.62 1487,651.5C 1489.83,655.155 1491.99,659.155 1493.5,663.5C 1479.46,640.799 1459.8,625.133 1434.5,616.5 Z"/></g>
<g><path style="opacity:1" fill="#a2687e" d="M 1344.5,622.5 C 1342.15,624.341 1339.48,625.674 1336.5,626.5C 1338.58,624.127 1341.25,622.794 1344.5,622.5 Z"/></g>
<g><path style="opacity:1" fill="#4b4b5d" d="M 1815.5,619.5 C 1813.17,622.5 1810.5,625.167 1807.5,627.5C 1809.17,623.833 1811.83,621.167 1815.5,619.5 Z"/></g>
<g><path style="opacity:1" fill="#547f8b" d="M 2108.5,621.5 C 2112.27,621.884 2115.27,623.55 2117.5,626.5C 2114.33,625.083 2111.33,623.417 2108.5,621.5 Z"/></g>
<g><path style="opacity:1" fill="#6694a0" d="M 2200.5,618.5 C 2197.5,622.167 2194.17,625.5 2190.5,628.5C 2192.83,624.167 2196.17,620.833 2200.5,618.5 Z"/></g>
<g><path style="opacity:1" fill="#59818d" d="M 1949.5,621.5 C 1946.67,623.417 1943.67,625.083 1940.5,626.5C 1942.73,623.55 1945.73,621.884 1949.5,621.5 Z"/></g>
<g><path style="opacity:1" fill="#ad7289" d="M 1641.5,613.5 C 1658.94,619.004 1668.28,631.004 1669.5,649.5C 1666.49,632.502 1657.16,620.502 1641.5,613.5 Z"/></g>
<g><path style="opacity:1" fill="#517d88" d="M 2257.5,627.5 C 2258.91,627.973 2259.57,628.973 2259.5,630.5C 2258.09,630.027 2257.43,629.027 2257.5,627.5 Z"/></g>
<g><path style="opacity:1" fill="#63322a" d="M 901.5,626.5 C 897.151,629.341 892.484,631.674 887.5,633.5C 891.581,630.126 896.247,627.793 901.5,626.5 Z"/></g>
<g><path style="opacity:1" fill="#54808b" d="M 2121.5,630.5 C 2122.91,630.973 2123.57,631.973 2123.5,633.5C 2122.09,633.027 2121.43,632.027 2121.5,630.5 Z"/></g>
<g><path style="opacity:1" fill="#507b86" d="M 2190.5,628.5 C 2189.67,631.485 2188.34,634.151 2186.5,636.5C 2186.79,633.246 2188.13,630.579 2190.5,628.5 Z"/></g>
<g><path style="opacity:1" fill="#4c7580" d="M 2259.5,630.5 C 2261.54,631.911 2262.54,633.911 2262.5,636.5C 2260.99,634.819 2259.99,632.819 2259.5,630.5 Z"/></g>
<g><path style="opacity:1" fill="#b5788f" d="M 1070.5,622.5 C 1090.64,628.071 1105.64,640.071 1115.5,658.5C 1104.09,641.969 1089.09,629.969 1070.5,622.5 Z"/></g>
<g><path style="opacity:1" fill="#a96d84" d="M 1591.5,632.5 C 1591.02,635.443 1590.02,638.11 1588.5,640.5C 1588.42,637.351 1589.42,634.684 1591.5,632.5 Z"/></g>
<g><path style="opacity:1" fill="#4b747e" d="M 2123.5,633.5 C 2125.1,634.287 2125.77,635.62 2125.5,637.5C 2124.33,636.486 2123.66,635.153 2123.5,633.5 Z"/></g>
<g><path style="opacity:1" fill="#49717b" d="M 2186.5,636.5 C 2186.41,638.786 2185.74,640.786 2184.5,642.5C 2184.26,640.102 2184.93,638.102 2186.5,636.5 Z"/></g>
<g><path style="opacity:1" fill="#507984" d="M 2262.5,636.5 C 2264.68,639.381 2265.68,642.714 2265.5,646.5C 2264.13,643.381 2263.13,640.048 2262.5,636.5 Z"/></g>
<g><path style="opacity:1" fill="#724e34" d="M 587.5,640.5 C 587.59,643.152 586.924,645.485 585.5,647.5C 585.41,644.848 586.076,642.515 587.5,640.5 Z"/></g>
<g><path style="opacity:1" fill="#6d99a5" d="M 2125.5,637.5 C 2127.05,641.034 2127.71,644.867 2127.5,649C 2127.5,652.021 2127.16,654.854 2126.5,657.5C 2126.61,650.804 2126.28,644.137 2125.5,637.5 Z"/></g>
<g><path style="opacity:1" fill="#63322a" d="M 871.5,644.5 C 867.833,648.833 863.833,652.833 859.5,656.5C 862.5,651.5 866.5,647.5 871.5,644.5 Z"/></g>
<g><path style="opacity:1" fill="#704d33" d="M 507.5,651.5 C 508.924,653.515 509.59,655.848 509.5,658.5C 508.076,656.485 507.41,654.152 507.5,651.5 Z"/></g>
<g><path style="opacity:1" fill="#a1677d" d="M 1115.5,658.5 C 1117.87,660.579 1119.21,663.246 1119.5,666.5C 1117.66,664.151 1116.33,661.485 1115.5,658.5 Z"/></g>
<g><path style="opacity:1" fill="#dfbac8" d="M 1588.5,640.5 C 1587.53,708.488 1587.19,776.488 1587.5,844.5C 1587.17,844.5 1586.83,844.5 1586.5,844.5C 1585.33,780.001 1585.17,715.335 1586,650.5C 1586.31,646.91 1587.14,643.577 1588.5,640.5 Z"/></g>
<g><path style="opacity:1" fill="#4f7a85" d="M 2125.5,660.5 C 2125.77,662.38 2125.1,663.713 2123.5,664.5C 2123.66,662.847 2124.33,661.514 2125.5,660.5 Z"/></g>
<g><path style="opacity:1" fill="#aa6e85" d="M 1493.5,663.5 C 1497.48,668.473 1500.15,674.14 1501.5,680.5C 1498.6,675.023 1495.93,669.357 1493.5,663.5 Z"/></g>
<g><path style="opacity:1" fill="#e5955b" d="M 425.5,671.5 C 424.833,747.833 424.167,824.167 423.5,900.5C 423.333,822.499 423.5,744.499 424,666.5C 424.352,668.247 424.852,669.914 425.5,671.5 Z"/></g>
<g><path style="opacity:1" fill="#fed966" d="M 2530.5,671.5 C 2559.11,682.282 2576.94,702.616 2584,732.5C 2589.84,775.334 2573.67,806.501 2535.5,826C 2529.08,828.771 2522.42,830.604 2515.5,831.5C 2505.42,833.057 2495.42,832.723 2485.5,830.5C 2486.91,826.296 2487.58,821.963 2487.5,817.5C 2488.12,817.389 2488.62,817.056 2489,816.5C 2490.47,806.434 2491.8,796.434 2493,786.5C 2493.83,763.663 2493.66,740.996 2492.5,718.5C 2492.5,717.5 2492.5,716.5 2492.5,715.5C 2491.35,705.519 2490.35,695.519 2489.5,685.5C 2488.18,679.922 2487.18,674.255 2486.5,668.5C 2501.34,666.984 2516,667.984 2530.5,671.5 Z"/></g>
<g><path style="opacity:1" fill="#fcdf81" d="M 2530.5,671.5 C 2516,667.984 2501.34,666.984 2486.5,668.5C 2487.18,674.255 2488.18,679.922 2489.5,685.5C 2488.83,684.167 2488.17,682.833 2487.5,681.5C 2485.94,677.343 2485.27,673.01 2485.5,668.5C 2485.5,668.167 2485.5,667.833 2485.5,667.5C 2501.04,663.903 2516.04,665.236 2530.5,671.5 Z"/></g>
<g><path style="opacity:1" fill="#4f7984" d="M 2123.5,664.5 C 2121.77,668.565 2118.77,671.232 2114.5,672.5C 2117.47,669.862 2120.47,667.195 2123.5,664.5 Z"/></g>
<g><path style="opacity:1" fill="#93d8ac" d="M 2483.5,667.5 C 2484.17,667.5 2484.83,667.5 2485.5,667.5C 2485.5,667.833 2485.5,668.167 2485.5,668.5C 2480.84,669.499 2476.17,670.499 2471.5,671.5C 2471.61,670.883 2471.94,670.383 2472.5,670C 2476.21,669.263 2479.87,668.429 2483.5,667.5 Z"/></g>
<g><path style="opacity:1" fill="#a56b81" d="M 1119.5,666.5 C 1123.95,674.519 1126.62,683.186 1127.5,692.5C 1125.07,683.857 1122.4,675.19 1119.5,666.5 Z"/></g>
<g><path style="opacity:1" fill="#8ad766" d="M 2485.5,668.5 C 2485.27,673.01 2485.94,677.343 2487.5,681.5C 2488.44,693.068 2490.1,704.401 2492.5,715.5C 2492.5,716.5 2492.5,717.5 2492.5,718.5C 2492.67,740.836 2492.5,763.169 2492,785.5C 2490.49,796.217 2488.99,806.884 2487.5,817.5C 2487.58,821.963 2486.91,826.296 2485.5,830.5C 2485.5,830.833 2485.5,831.167 2485.5,831.5C 2484.83,831.5 2484.17,831.5 2483.5,831.5C 2482.43,830.566 2481.1,830.232 2479.5,830.5C 2476.07,828.435 2472.41,826.769 2468.5,825.5C 2466.31,825.296 2464.31,824.63 2462.5,823.5C 2460.21,819.728 2456.88,817.395 2452.5,816.5C 2436.91,804.315 2426.57,788.648 2421.5,769.5C 2419.58,758.249 2419.08,746.916 2420,735.5C 2422.9,728.639 2425.07,721.639 2426.5,714.5C 2427.62,708.923 2430.29,704.256 2434.5,700.5C 2440.5,693.833 2446.83,687.5 2453.5,681.5C 2454.8,679.178 2456.8,677.845 2459.5,677.5C 2463.88,676.808 2467.55,674.808 2470.5,671.5C 2470.83,671.5 2471.17,671.5 2471.5,671.5C 2476.17,670.499 2480.84,669.499 2485.5,668.5 Z"/></g>
<g><path style="opacity:1" fill="#63332b" d="M 959.5,671.5 C 957.095,672.768 954.428,673.435 951.5,673.5C 953.838,671.96 956.505,671.294 959.5,671.5 Z"/></g>
<g><path style="opacity:1" fill="#4e7781" d="M 2114.5,672.5 C 2111.34,675 2107.67,676.333 2103.5,676.5C 2106.95,674.792 2110.62,673.459 2114.5,672.5 Z"/></g>
<g><path style="opacity:1" fill="#724e34" d="M 578.5,674.5 C 578.59,677.152 577.924,679.485 576.5,681.5C 576.41,678.848 577.076,676.515 578.5,674.5 Z"/></g>
<g><path style="opacity:1" fill="#5f2f26" d="M 948.5,674.5 C 945.485,676.674 942.151,678.341 938.5,679.5C 941.247,676.793 944.58,675.127 948.5,674.5 Z"/></g>
<g><path style="opacity:1" fill="#c88da3" d="M 1382.5,678.5 C 1373.83,677.24 1365.16,677.24 1356.5,678.5C 1356.92,677.778 1357.58,677.278 1358.5,677C 1361.83,676.833 1365.17,676.667 1368.5,676.5C 1373.44,676.3 1378.1,676.967 1382.5,678.5 Z"/></g>
<g><path style="opacity:1" fill="#8bd697" d="M 2470.5,671.5 C 2467.55,674.808 2463.88,676.808 2459.5,677.5C 2462.39,674.22 2466.06,672.22 2470.5,671.5 Z"/></g>
<g><path style="opacity:1" fill="#745138" d="M 435.5,676.5 C 442.924,702.53 449.591,728.863 455.5,755.5C 448.076,729.47 441.409,703.137 435.5,676.5 Z"/></g>
<g><path style="opacity:1" fill="#486471" d="M 1946.5,675.5 C 1950.05,676.13 1953.38,677.13 1956.5,678.5C 1952.71,678.68 1949.38,677.68 1946.5,675.5 Z"/></g>
<g><path style="opacity:1" fill="#a1687e" d="M 1382.5,678.5 C 1385.5,678.294 1388.16,678.96 1390.5,680.5C 1387.57,680.435 1384.91,679.768 1382.5,678.5 Z"/></g>
<g><path style="opacity:1" fill="#562820" d="M 1026.5,676.5 C 1031.44,678.442 1035.11,681.775 1037.5,686.5C 1033.81,683.138 1030.14,679.805 1026.5,676.5 Z"/></g>
<g><path style="opacity:1" fill="#a1677d" d="M 1356.5,678.5 C 1354.09,679.768 1351.43,680.435 1348.5,680.5C 1350.84,678.96 1353.5,678.294 1356.5,678.5 Z"/></g>
<g><path style="opacity:1" fill="#466d77" d="M 1956.5,678.5 C 1963.5,678.5 1970.5,678.5 1977.5,678.5C 1977.5,738.167 1977.5,797.833 1977.5,857.5C 1976.5,798.336 1976.17,739.002 1976.5,679.5C 1969.65,679.824 1962.98,679.491 1956.5,678.5 Z"/></g>
<g><path style="opacity:1" fill="#53818c" d="M 2091.5,678.5 C 2081.68,679.494 2071.68,679.827 2061.5,679.5C 2061.5,734.167 2061.5,788.833 2061.5,843.5C 2060.5,788.669 2060.17,733.669 2060.5,678.5C 2070.83,678.5 2081.17,678.5 2091.5,678.5 Z"/></g>
<g><path style="opacity:1" fill="#febe8f" d="M 184.5,638.5 C 180.47,663.686 176.137,688.686 171.5,713.5C 174.019,688.047 178.352,663.047 184.5,638.5 Z"/></g>
<g><path style="opacity:1" fill="#c0859b" d="M 1390.5,680.5 C 1394.36,680.054 1397.36,681.387 1399.5,684.5C 1396.31,683.403 1393.31,682.07 1390.5,680.5 Z"/></g>
<g><path style="opacity:1" fill="#aa7086" d="M 1501.5,680.5 C 1505.4,690.001 1507.4,700.001 1507.5,710.5C 1505.9,700.519 1503.9,690.519 1501.5,680.5 Z"/></g>
<g><path style="opacity:1" fill="#714d33" d="M 516.5,685.5 C 517.924,687.515 518.59,689.848 518.5,692.5C 517.076,690.485 516.41,688.152 516.5,685.5 Z"/></g>
<g><path style="opacity:1" fill="#75b7c8" d="M 2085.5,687.5 C 2080.69,688.487 2075.69,688.821 2070.5,688.5C 2070.5,740.833 2070.5,793.167 2070.5,845.5C 2069.5,793.003 2069.17,740.336 2069.5,687.5C 2074.83,687.5 2080.17,687.5 2085.5,687.5 Z"/></g>
<g><path style="opacity:1" fill="#c7d965" d="M 2487.5,681.5 C 2488.17,682.833 2488.83,684.167 2489.5,685.5C 2490.35,695.519 2491.35,705.519 2492.5,715.5C 2490.1,704.401 2488.44,693.068 2487.5,681.5 Z"/></g>
<g><path style="opacity:1" fill="#603028" d="M 1037.5,686.5 C 1040.21,689.247 1041.87,692.58 1042.5,696.5C 1040.33,693.485 1038.66,690.151 1037.5,686.5 Z"/></g>
<g><path style="opacity:1" fill="#623027" d="M 931.5,684.5 C 928.167,688.5 924.5,692.167 920.5,695.5C 923.167,690.833 926.833,687.167 931.5,684.5 Z"/></g>
<g><path style="opacity:1" fill="#8ad69d" d="M 2453.5,681.5 C 2446.83,687.5 2440.5,693.833 2434.5,700.5C 2439.17,692.5 2445.5,686.167 2453.5,681.5 Z"/></g>
<g><path style="opacity:1" fill="#ad7188" d="M 1348.5,680.5 C 1325.28,690.052 1309.61,706.719 1301.5,730.5C 1305.4,713.08 1314.74,699.247 1329.5,689C 1335.11,684.527 1341.44,681.694 1348.5,680.5 Z"/></g>
<g><path style="opacity:1" fill="#6f3e36" d="M 843.5,690.5 C 843.317,697.868 843.65,705.201 844.5,712.5C 843.732,711.737 843.232,710.737 843,709.5C 842.18,702.986 842.347,696.653 843.5,690.5 Z"/></g>
<g><path style="opacity:1" fill="#c993a7" d="M 1127.5,692.5 C 1129.42,698.899 1130.42,705.565 1130.5,712.5C 1128.4,706.132 1127.4,699.465 1127.5,692.5 Z"/></g>
<g><path style="opacity:1" fill="#5f2f27" d="M 917.5,699.5 C 916.241,703.025 914.241,706.025 911.5,708.5C 912.723,704.951 914.723,701.951 917.5,699.5 Z"/></g>
<g><path style="opacity:1" fill="#b67890" d="M 1399.5,684.5 C 1400.92,684.709 1402.26,685.209 1403.5,686C 1412.36,693.546 1417.69,703.046 1419.5,714.5C 1415.83,702.499 1409.17,692.499 1399.5,684.5 Z"/></g>
<g><path style="opacity:1" fill="#fd885a" d="M 834.5,628.5 C 831.822,647.578 829.155,666.578 826.5,685.5C 825.404,723.824 825.237,762.157 826,800.5C 826.292,804.882 826.792,809.215 827.5,813.5C 827.34,815.153 826.674,816.486 825.5,817.5C 825.108,815.821 824.608,814.154 824,812.5C 823.333,769.833 823.333,727.167 824,684.5C 827.002,666.163 830.002,647.829 833,629.5C 833.383,628.944 833.883,628.611 834.5,628.5 Z"/></g>
<g><path style="opacity:1" fill="#724e34" d="M 569.5,708.5 C 569.59,711.152 568.924,713.485 567.5,715.5C 567.41,712.848 568.076,710.515 569.5,708.5 Z"/></g>
<g><path style="opacity:1" fill="#623229" d="M 844.5,712.5 C 846.008,714.181 847.008,716.181 847.5,718.5C 845.461,717.089 844.461,715.089 844.5,712.5 Z"/></g>
<g><path style="opacity:1" fill="#724e34" d="M 525.5,719.5 C 526.924,721.515 527.59,723.848 527.5,726.5C 526.076,724.485 525.41,722.152 525.5,719.5 Z"/></g>
<g><path style="opacity:0.336" fill="#febe8f" d="M 171.5,713.5 C 170.75,744.254 171.75,774.92 174.5,805.5C 172.707,798.741 171.54,791.741 171,784.5C 170.17,760.663 170.337,736.996 171.5,713.5 Z"/></g>
<g><path style="opacity:1" fill="#9b6479" d="M 1420.5,718.5 C 1422.01,721.544 1422.68,724.878 1422.5,728.5C 1421.22,725.411 1420.55,722.078 1420.5,718.5 Z"/></g>
<g><path style="opacity:1" fill="#65342b" d="M 856.5,727.5 C 859.485,728.326 862.151,729.659 864.5,731.5C 861.246,731.206 858.579,729.873 856.5,727.5 Z"/></g>
<g><path style="opacity:1" fill="#8ad690" d="M 2426.5,714.5 C 2425.07,721.639 2422.9,728.639 2420,735.5C 2419.08,746.916 2419.58,758.249 2421.5,769.5C 2420.77,768.192 2419.93,766.858 2419,765.5C 2418.33,754.5 2418.33,743.5 2419,732.5C 2421.33,728.512 2422.66,724.179 2423,719.5C 2423.9,717.569 2425.07,715.903 2426.5,714.5 Z"/></g>
<g><path style="opacity:1" fill="#68362e" d="M 1048.5,724.5 C 1049.16,725.622 1049.49,726.955 1049.5,728.5C 1049.41,730.333 1048.75,731.666 1047.5,732.5C 1048.39,729.946 1048.72,727.279 1048.5,724.5 Z"/></g>
<g><path style="opacity:1" fill="#64342b" d="M 892.5,731.5 C 889.155,733.217 885.489,733.884 881.5,733.5C 884.974,732.475 888.64,731.808 892.5,731.5 Z"/></g>
<g><path style="opacity:1" fill="#62322a" d="M 1047.5,732.5 C 1045.49,733.924 1043.15,734.59 1040.5,734.5C 1042.51,733.076 1044.85,732.41 1047.5,732.5 Z"/></g>
<g><path style="opacity:1" fill="#603129" d="M 1040.5,734.5 C 1038.49,735.924 1036.15,736.59 1033.5,736.5C 1035.51,735.076 1037.85,734.41 1040.5,734.5 Z"/></g>
<g><path style="opacity:1" fill="#a990ba" d="M 1734.5,705.5 C 1733.2,733.166 1733.2,760.833 1734.5,788.5C 1733.88,788.389 1733.38,788.056 1733,787.5C 1732.33,760.5 1732.33,733.5 1733,706.5C 1733.38,705.944 1733.88,705.611 1734.5,705.5 Z"/></g>
<g><path style="opacity:1" fill="#899cc3" d="M 1949.5,686.5 C 1949.83,686.5 1950.17,686.5 1950.5,686.5C 1954.2,726.067 1954.37,765.733 1951,805.5C 1949.35,812.744 1948.35,820.077 1948,827.5C 1947.62,828.056 1947.12,828.389 1946.5,828.5C 1948.3,809.841 1950.13,791.175 1952,772.5C 1953.26,743.747 1952.42,715.081 1949.5,686.5 Z"/></g>
<g><path style="opacity:1" fill="#724e34" d="M 560.5,742.5 C 560.59,745.152 559.924,747.485 558.5,749.5C 558.41,746.848 559.076,744.515 560.5,742.5 Z"/></g>
<g><path style="opacity:1" fill="#b67c92" d="M 1300.5,735.5 C 1300.31,740.37 1299.64,745.036 1298.5,749.5C 1298.33,745.486 1298.5,741.486 1299,737.5C 1299.28,736.584 1299.78,735.918 1300.5,735.5 Z"/></g>
<g><path style="opacity:1" fill="#745138" d="M 637.5,752.5 C 631.924,777.804 625.591,802.804 618.5,827.5C 624.076,802.196 630.409,777.196 637.5,752.5 Z"/></g>
<g><path style="opacity:1" fill="#724e34" d="M 534.5,753.5 C 535.924,755.515 536.59,757.848 536.5,760.5C 535.076,758.485 534.41,756.152 534.5,753.5 Z"/></g>
<g><path style="opacity:1" fill="#b2738b" d="M 1422.5,728.5 C 1423.22,728.918 1423.72,729.584 1424,730.5C 1424.33,734.5 1424.67,738.5 1425,742.5C 1425.5,798.832 1425.67,855.166 1425.5,911.5C 1424.67,857.002 1424.17,802.335 1424,747.5C 1423.44,741.165 1422.94,734.832 1422.5,728.5 Z"/></g>
<g><path style="opacity:1" fill="#623229" d="M 905.5,765.5 C 903.485,766.924 901.152,767.59 898.5,767.5C 900.515,766.076 902.848,765.41 905.5,765.5 Z"/></g>
<g><path style="opacity:1" fill="#66362d" d="M 884.5,772.5 C 880.818,775.008 876.818,777.008 872.5,778.5C 875.914,775.46 879.914,773.46 884.5,772.5 Z"/></g>
<g><path style="opacity:1" fill="#724e34" d="M 551.5,776.5 C 551.59,779.152 550.924,781.485 549.5,783.5C 549.41,780.848 550.076,778.515 551.5,776.5 Z"/></g>
<g><path style="opacity:1" fill="#5d2c23" d="M 1048.5,811.5 C 1048.5,802.5 1048.5,793.5 1048.5,784.5C 1047.5,784.5 1046.5,784.5 1045.5,784.5C 1046.53,783.751 1047.7,783.085 1049,782.5C 1049.82,792.342 1049.66,802.009 1048.5,811.5 Z"/></g>
<g><path style="opacity:1" fill="#9a6478" d="M 1298.5,749.5 C 1297.9,802.328 1297.23,854.995 1296.5,907.5C 1296.33,857.166 1296.5,806.832 1297,756.5C 1297.19,753.964 1297.69,751.631 1298.5,749.5 Z"/></g>
<g><path style="opacity:1" fill="#120805" d="M 1045.5,784.5 C 1046.5,784.5 1047.5,784.5 1048.5,784.5C 1048.5,793.5 1048.5,802.5 1048.5,811.5C 1048.67,828.165 1044.83,843.831 1037,858.5C 1035.95,860.618 1034.45,862.284 1032.5,863.5C 1028.83,866.5 1025.5,869.833 1022.5,873.5C 1021.74,875.262 1020.4,876.262 1018.5,876.5C 1016.15,877.34 1014.15,878.674 1012.5,880.5C 1008.18,881.992 1004.18,883.992 1000.5,886.5C 983.912,893.66 966.579,895.826 948.5,893C 945.135,892.495 942.135,891.328 939.5,889.5C 937.819,887.992 935.819,886.992 933.5,886.5C 931.973,886.573 930.973,885.906 930.5,884.5C 927.167,880.5 923.5,876.833 919.5,873.5C 912.312,864.076 909.812,853.409 912,841.5C 912.653,837.347 914.153,833.68 916.5,830.5C 919.805,826.859 923.138,823.192 926.5,819.5C 932.461,814.018 939.461,810.351 947.5,808.5C 953.094,807.768 958.427,806.435 963.5,804.5C 979.578,800.215 995.911,796.548 1012.5,793.5C 1015.78,793.58 1018.78,792.913 1021.5,791.5C 1024.15,791.59 1026.49,790.924 1028.5,789.5C 1029.57,788.566 1030.9,788.232 1032.5,788.5C 1035.15,788.59 1037.49,787.924 1039.5,786.5C 1041.21,785.262 1043.21,784.595 1045.5,784.5 Z"/></g>
<g><path style="opacity:1" fill="#613129" d="M 1039.5,786.5 C 1037.49,787.924 1035.15,788.59 1032.5,788.5C 1034.51,787.076 1036.85,786.41 1039.5,786.5 Z"/></g>
<g><path style="opacity:1" fill="#63322a" d="M 1028.5,789.5 C 1026.49,790.924 1024.15,791.59 1021.5,791.5C 1023.51,790.076 1025.85,789.41 1028.5,789.5 Z"/></g>
<g><path style="opacity:1" fill="#613229" d="M 1021.5,791.5 C 1018.78,792.913 1015.78,793.58 1012.5,793.5C 1015.22,792.087 1018.22,791.42 1021.5,791.5 Z"/></g>
<g><path style="opacity:1" fill="#724e34" d="M 543.5,787.5 C 544.924,789.515 545.59,791.848 545.5,794.5C 544.076,792.485 543.41,790.152 543.5,787.5 Z"/></g>
<g><path style="opacity:1" fill="#703e36" d="M 860.5,786.5 C 855.833,791.833 850.833,796.833 845.5,801.5C 849.5,795.5 854.5,790.5 860.5,786.5 Z"/></g>
<g><path style="opacity:1" fill="#704d34" d="M 547.5,791.5 C 547.477,793.927 546.977,796.26 546,798.5C 545.51,797.207 545.343,795.873 545.5,794.5C 546.167,793.5 546.833,792.5 547.5,791.5 Z"/></g>
<g><path style="opacity:1" fill="#fb694e" d="M 1038.5,795.5 C 1044.93,851.766 1019.6,881.766 962.5,885.5C 940.811,885.429 926.978,875.096 921,854.5C 918.828,840.344 923.995,829.844 936.5,823C 939.5,821.333 942.5,819.667 945.5,818C 976.683,810.701 1007.68,803.201 1038.5,795.5 Z"/></g>
<g><path style="opacity:1" fill="#d8d965" d="M 2492.5,718.5 C 2493.66,740.996 2493.83,763.663 2493,786.5C 2491.8,796.434 2490.47,806.434 2489,816.5C 2488.62,817.056 2488.12,817.389 2487.5,817.5C 2488.99,806.884 2490.49,796.217 2492,785.5C 2492.5,763.169 2492.67,740.836 2492.5,718.5 Z"/></g>
<g><path style="opacity:1" fill="#66352c" d="M 845.5,801.5 C 844.241,805.025 842.241,808.025 839.5,810.5C 840.723,806.951 842.723,803.951 845.5,801.5 Z"/></g>
<g><path style="opacity:1" fill="#5f3028" d="M 963.5,804.5 C 958.427,806.435 953.094,807.768 947.5,808.5C 952.497,806.251 957.83,804.917 963.5,804.5 Z"/></g>
<g><path style="opacity:1" fill="#66352d" d="M 839.5,810.5 C 838.341,814.151 836.674,817.485 834.5,820.5C 835.127,816.58 836.793,813.247 839.5,810.5 Z"/></g>
<g><path style="opacity:1" fill="#8bd69a" d="M 2452.5,816.5 C 2456.88,817.395 2460.21,819.728 2462.5,823.5C 2458.46,822.149 2455.13,819.815 2452.5,816.5 Z"/></g>
<g><path style="opacity:1" fill="#582a21" d="M 926.5,819.5 C 923.138,823.192 919.805,826.859 916.5,830.5C 918.442,825.559 921.775,821.892 926.5,819.5 Z"/></g>
<g><path style="opacity:0.749" fill="#fec194" d="M 176.5,819.5 C 178.345,823.167 179.512,827.167 180,831.5C 180.684,836.822 181.184,842.156 181.5,847.5C 179.636,838.326 177.97,828.993 176.5,819.5 Z"/></g>
<g><path style="opacity:1" fill="#d59ac0" d="M 1736.5,812.5 C 1737.93,814.598 1739.1,816.931 1740,819.5C 1742.7,835.313 1746.2,850.979 1750.5,866.5C 1746.47,856.659 1742.97,846.659 1740,836.5C 1738.11,828.632 1736.95,820.632 1736.5,812.5 Z"/></g>
<g><path style="opacity:1" fill="#8ad6bc" d="M 2468.5,825.5 C 2472.41,826.769 2476.07,828.435 2479.5,830.5C 2474.82,830.767 2471.16,829.1 2468.5,825.5 Z"/></g>
<g><path style="opacity:0.248" fill="#fee391" d="M 2485.5,831.5 C 2485.5,831.167 2485.5,830.833 2485.5,830.5C 2495.42,832.723 2505.42,833.057 2515.5,831.5C 2515.08,832.222 2514.42,832.722 2513.5,833C 2504.05,833.98 2494.71,833.48 2485.5,831.5 Z"/></g>
<g><path style="opacity:1" fill="#a46a80" d="M 1672.5,827.5 C 1674.07,833.663 1675.4,839.996 1676.5,846.5C 1673.91,840.548 1672.57,834.214 1672.5,827.5 Z"/></g>
<g><path style="opacity:1" fill="#a46a80" d="M 1131.5,845.5 C 1132.72,850.29 1133.39,855.29 1133.5,860.5C 1131.97,855.75 1131.3,850.75 1131.5,845.5 Z"/></g>
<g><path style="opacity:1" fill="#a2687e" d="M 1676.5,846.5 C 1679.07,851.311 1681.4,856.311 1683.5,861.5C 1679.85,857.192 1677.51,852.192 1676.5,846.5 Z"/></g>
<g><path style="opacity:1" fill="#a56a81" d="M 1586.5,844.5 C 1586.83,844.5 1587.17,844.5 1587.5,844.5C 1587.79,852.202 1588.46,859.869 1589.5,867.5C 1587.3,860.124 1586.3,852.457 1586.5,844.5 Z"/></g>
<g><path style="opacity:1" fill="#af728a" d="M 1683.5,861.5 C 1691.12,871.795 1701.12,878.462 1713.5,881.5C 1699.99,879.97 1689.99,873.303 1683.5,861.5 Z"/></g>
<g><path style="opacity:1" fill="#b27a8f" d="M 1133.5,860.5 C 1135.79,868.32 1137.79,876.32 1139.5,884.5C 1136.25,876.82 1134.25,868.82 1133.5,860.5 Z"/></g>
<g><path style="opacity:0.671" fill="#fec195" d="M 186.5,866.5 C 189.887,873.346 191.887,880.68 192.5,888.5C 190.212,881.357 188.212,874.024 186.5,866.5 Z"/></g>
<g><path style="opacity:1" fill="#6c3a32" d="M 1032.5,863.5 C 1030.17,867.833 1026.83,871.167 1022.5,873.5C 1025.5,869.833 1028.83,866.5 1032.5,863.5 Z"/></g>
<g><path style="opacity:1" fill="#68919c" d="M 2063.5,865.5 C 2065.07,868.314 2066.4,871.314 2067.5,874.5C 2064.39,872.36 2063.05,869.36 2063.5,865.5 Z"/></g>
<g><path style="opacity:1" fill="#6f4d33" d="M 485.5,875.5 C 487.258,878.854 488.258,882.521 488.5,886.5C 486.742,883.146 485.742,879.479 485.5,875.5 Z"/></g>
<g><path style="opacity:1" fill="#714d34" d="M 829.5,873.5 C 830.768,875.905 831.435,878.572 831.5,881.5C 829.96,879.162 829.294,876.495 829.5,873.5 Z"/></g>
<g><path style="opacity:1" fill="#53271f" d="M 919.5,873.5 C 923.5,876.833 927.167,880.5 930.5,884.5C 925.833,881.833 922.167,878.167 919.5,873.5 Z"/></g>
<g><path style="opacity:1" fill="#517b86" d="M 2067.5,874.5 C 2070.67,877.913 2074.34,880.58 2078.5,882.5C 2073.17,882.011 2069.5,879.344 2067.5,874.5 Z"/></g>
<g><path style="opacity:1" fill="#65342b" d="M 1018.5,876.5 C 1017.2,878.822 1015.2,880.155 1012.5,880.5C 1014.15,878.674 1016.15,877.34 1018.5,876.5 Z"/></g>
<g><path style="opacity:1" fill="#b47b91" d="M 1754.5,876.5 C 1749.46,879.788 1743.79,881.454 1737.5,881.5C 1743.03,879.66 1748.7,877.993 1754.5,876.5 Z"/></g>
<g><path style="opacity:1" fill="#88acb6" d="M 2134.5,879.5 C 2123.1,879.845 2111.77,880.845 2100.5,882.5C 2111.63,878.772 2122.96,877.772 2134.5,879.5 Z"/></g>
<g><path style="opacity:1" fill="#527c87" d="M 2134.5,879.5 C 2138.27,879.884 2141.27,881.55 2143.5,884.5C 2140.33,883.083 2137.33,881.417 2134.5,879.5 Z"/></g>
<g><path style="opacity:1" fill="#623128" d="M 1012.5,880.5 C 1009.09,883.54 1005.09,885.54 1000.5,886.5C 1004.18,883.992 1008.18,881.992 1012.5,880.5 Z"/></g>
<g><path style="opacity:1" fill="#c589a0" d="M 1713.5,881.5 C 1721.5,882.833 1729.5,882.833 1737.5,881.5C 1737.08,882.222 1736.42,882.722 1735.5,883C 1732.67,883.167 1729.83,883.333 1727,883.5C 1722.24,883.634 1717.74,882.968 1713.5,881.5 Z"/></g>
<g><path style="opacity:1" fill="#78a3af" d="M 2078.5,882.5 C 2083.14,883.127 2087.81,883.46 2092.5,883.5C 2090.7,884.162 2088.7,884.495 2086.5,884.5C 2083.47,884.713 2080.81,884.047 2078.5,882.5 Z"/></g>
<g><path style="opacity:1" fill="#41656f" d="M 2143.5,884.5 C 2146.17,885.167 2147.83,886.833 2148.5,889.5C 2146.5,888.167 2144.83,886.5 2143.5,884.5 Z"/></g>
<g><path style="opacity:1" fill="#67362d" d="M 933.5,886.5 C 935.819,886.992 937.819,887.992 939.5,889.5C 936.911,889.539 934.911,888.539 933.5,886.5 Z"/></g>
<g><path style="opacity:1" fill="#ac7087" d="M 1139.5,884.5 C 1140.92,886.515 1141.59,888.848 1141.5,891.5C 1140.08,889.485 1139.41,887.152 1139.5,884.5 Z"/></g>
<g><path style="opacity:1" fill="#6e4b31" d="M 603.5,887.5 C 603.59,890.152 602.924,892.485 601.5,894.5C 601.41,891.848 602.076,889.515 603.5,887.5 Z"/></g>
<g><path style="opacity:1" fill="#88acb5" d="M 1980.5,887.5 C 1981.12,887.611 1981.62,887.944 1982,888.5C 1982.5,891.146 1982.66,893.813 1982.5,896.5C 1981.09,893.781 1980.42,890.781 1980.5,887.5 Z"/></g>
<g><path style="opacity:1" fill="#517d88" d="M 2148.5,889.5 C 2149.91,889.973 2150.57,890.973 2150.5,892.5C 2149.09,892.027 2148.43,891.027 2148.5,889.5 Z"/></g>
<g><path style="opacity:1" fill="#a86d83" d="M 1141.5,891.5 C 1142.92,893.515 1143.59,895.848 1143.5,898.5C 1142.08,896.485 1141.41,894.152 1141.5,891.5 Z"/></g>
<g><path style="opacity:1" fill="#6e4b32" d="M 490.5,894.5 C 491.924,896.515 492.59,898.848 492.5,901.5C 491.076,899.485 490.41,897.152 490.5,894.5 Z"/></g>
<g><path style="opacity:1" fill="#89b9d6" d="M 1950.5,686.5 C 1952.1,686.232 1953.43,686.566 1954.5,687.5C 1953.35,687.791 1952.68,688.624 1952.5,690C 1953.25,693.518 1954.09,697.018 1955,700.5C 1955.67,729.833 1955.67,759.167 1955,788.5C 1951.3,812.783 1947.97,837.117 1945,861.5C 1942.04,872.419 1939.38,883.419 1937,894.5C 1934.98,901.404 1932.48,908.07 1929.5,914.5C 1931.57,907.954 1933.24,901.288 1934.5,894.5C 1935.69,885.68 1937.69,877.013 1940.5,868.5C 1942.93,855.225 1944.93,841.892 1946.5,828.5C 1947.12,828.389 1947.62,828.056 1948,827.5C 1948.35,820.077 1949.35,812.744 1951,805.5C 1954.37,765.733 1954.2,726.067 1950.5,686.5 Z"/></g>
<g><path style="opacity:1" fill="#4d7781" d="M 1983.5,900.5 C 1984.74,902.214 1985.41,904.214 1985.5,906.5C 1983.93,904.898 1983.26,902.898 1983.5,900.5 Z"/></g>
<g><path style="opacity:1" fill="#735036" d="M 492.5,901.5 C 493.924,903.515 494.59,905.848 494.5,908.5C 493.076,906.485 492.41,904.152 492.5,901.5 Z"/></g>
<g><path style="opacity:1" fill="#b77a91" d="M 1591.5,876.5 C 1597.67,897.487 1609.33,914.821 1626.5,928.5C 1607.74,916.053 1596.08,898.72 1591.5,876.5 Z"/></g>
<g><path style="opacity:1" fill="#5e2e25" d="M 1056.5,905.5 C 1054.9,904.438 1053.23,904.438 1051.5,905.5C 1053.46,901.648 1055.12,901.648 1056.5,905.5 Z"/></g>
<g><path style="opacity:1" fill="#3e3e50" d="M 1797.5,899.5 C 1792.17,906.833 1785.83,913.167 1778.5,918.5C 1784.5,911.833 1790.83,905.5 1797.5,899.5 Z"/></g>
<g><path style="opacity:1" fill="#a46a80" d="M 1508.5,906.5 C 1508.8,910.79 1508.14,914.79 1506.5,918.5C 1506.72,914.295 1507.38,910.295 1508.5,906.5 Z"/></g>
<g><path style="opacity:1" fill="#57828d" d="M 1985.5,906.5 C 1988.5,911.825 1991.5,917.159 1994.5,922.5C 1989.97,918.104 1986.97,912.77 1985.5,906.5 Z"/></g>
<g><path style="opacity:1" fill="#693b2e" d="M 843.5,906.5 C 846.209,909.208 848.542,912.208 850.5,915.5C 847.027,913.363 844.694,910.363 843.5,906.5 Z"/></g>
<g><path style="opacity:1" fill="#824d52" d="M 1056.5,905.5 C 1059.23,907.946 1061.23,910.946 1062.5,914.5C 1062.5,914.833 1062.5,915.167 1062.5,915.5C 1060,912.506 1058,909.173 1056.5,905.5 Z"/></g>
<g><path style="opacity:1" fill="#d19db0" d="M 1425.5,911.5 C 1426.22,911.918 1426.72,912.584 1427,913.5C 1427.5,916.146 1427.66,918.813 1427.5,921.5C 1425.99,918.456 1425.32,915.122 1425.5,911.5 Z"/></g>
<g><path style="opacity:1" fill="#4f7984" d="M 2153.5,914.5 C 2153.74,916.898 2153.07,918.898 2151.5,920.5C 2151.59,918.214 2152.26,916.214 2153.5,914.5 Z"/></g>
<g><path style="opacity:1" fill="#fc6a4f" d="M 1055.5,921.5 C 1051.94,927.663 1049.27,934.33 1047.5,941.5C 1043.46,945.596 1041.12,950.596 1040.5,956.5C 1038.11,958.913 1035.95,961.58 1034,964.5C 1032.69,969.106 1030.86,973.439 1028.5,977.5C 1025.54,979.788 1023.88,982.788 1023.5,986.5C 1019.87,989.727 1017.2,993.727 1015.5,998.5C 1013.86,1001.31 1012.36,1004.31 1011,1007.5C 1006.75,1009.57 1004.25,1012.91 1003.5,1017.5C 999.372,1020.29 996.372,1023.96 994.5,1028.5C 991.129,1031.87 988.129,1035.54 985.5,1039.5C 982.129,1042.87 979.129,1046.54 976.5,1050.5C 968.872,1059.46 960.872,1068.13 952.5,1076.5C 947.226,1080.1 942.559,1084.44 938.5,1089.5C 937.833,1089.5 937.167,1089.5 936.5,1089.5C 927.856,1077.02 919.023,1064.69 910,1052.5C 909.808,1050.42 909.308,1048.42 908.5,1046.5C 904.532,1043.23 901.532,1039.23 899.5,1034.5C 899.657,1033.13 899.49,1031.79 899,1030.5C 897.488,1029.74 896.154,1028.74 895,1027.5C 891.694,1020.45 888.694,1013.12 886,1005.5C 881.964,998.75 878.297,991.75 875,984.5C 873.136,976.243 870.47,968.243 867,960.5C 865.333,958.833 863.667,957.167 862,955.5C 858.911,946.727 855.745,938.06 852.5,929.5C 857.727,934.221 863.393,938.388 869.5,942C 894.901,955.29 921.901,960.29 950.5,957C 987.997,953.002 1021.66,939.502 1051.5,916.5C 1053.55,917.611 1054.89,919.277 1055.5,921.5 Z"/></g>
<g><path style="opacity:1" fill="#755137" d="M 333.5,917.5 C 335.072,920.215 336.072,923.215 336.5,926.5C 334.528,923.916 333.528,920.916 333.5,917.5 Z"/></g>
<g><path style="opacity:1" fill="#745037" d="M 758.5,917.5 C 758.472,920.916 757.472,923.916 755.5,926.5C 755.928,923.215 756.928,920.215 758.5,917.5 Z"/></g>
<g><path style="opacity:1" fill="#4c7580" d="M 2184.5,917.5 C 2185.74,919.214 2186.41,921.214 2186.5,923.5C 2184.93,921.898 2184.26,919.898 2184.5,917.5 Z"/></g>
<g><path style="opacity:1" fill="#4d7782" d="M 2264.5,917.5 C 2264.74,919.898 2264.07,921.898 2262.5,923.5C 2262.59,921.214 2263.26,919.214 2264.5,917.5 Z"/></g>
<g><path style="opacity:1" fill="#ca8aa3" d="M 1213.5,525.5 C 1213.33,653.834 1213.5,782.167 1214,910.5C 1215.22,926.64 1222.72,938.64 1236.5,946.5C 1227.67,943.171 1221.17,937.171 1217,928.5C 1215.2,923.625 1213.86,918.625 1213,913.5C 1212.17,783.999 1212.33,654.666 1213.5,525.5 Z"/></g>
<g><path style="opacity:1" fill="#714e34" d="M 413.5,915.5 C 413.68,919.286 412.68,922.619 410.5,925.5C 411.13,921.952 412.13,918.619 413.5,915.5 Z"/></g>
<g><path style="opacity:1" fill="#6c492f" d="M 594.5,917.5 C 594.539,920.089 593.539,922.089 591.5,923.5C 591.992,921.181 592.992,919.181 594.5,917.5 Z"/></g>
<g><path style="opacity:1" fill="#755136" d="M 496.5,913.5 C 499.83,919.492 503.163,925.492 506.5,931.5C 501.63,926.433 498.296,920.433 496.5,913.5 Z"/></g>
<g><path style="opacity:1" fill="#4a737d" d="M 1994.5,922.5 C 1998.17,925.5 2001.5,928.833 2004.5,932.5C 2000.17,930.167 1996.83,926.833 1994.5,922.5 Z"/></g>
<g><path style="opacity:1" fill="#785338" d="M 591.5,923.5 C 591.155,926.198 589.822,928.198 587.5,929.5C 588.34,927.147 589.674,925.147 591.5,923.5 Z"/></g>
<g><path style="opacity:1" fill="#64332a" d="M 857.5,922.5 C 859.749,923.08 861.415,924.413 862.5,926.5C 860.251,925.92 858.585,924.587 857.5,922.5 Z"/></g>
<g><path style="opacity:1" fill="#55808b" d="M 2186.5,923.5 C 2188.34,925.849 2189.67,928.515 2190.5,931.5C 2188.13,929.421 2186.79,926.754 2186.5,923.5 Z"/></g>
<g><path style="opacity:1" fill="#537e89" d="M 2262.5,923.5 C 2262.21,926.754 2260.87,929.421 2258.5,931.5C 2259.33,928.515 2260.66,925.849 2262.5,923.5 Z"/></g>
<g><path style="opacity:1" fill="#b67990" d="M 1295.5,914.5 C 1293.34,931.309 1284.34,942.309 1268.5,947.5C 1282.99,941.006 1291.99,930.006 1295.5,914.5 Z"/></g>
<g><path style="opacity:1" fill="#bb7d94" d="M 1427.5,921.5 C 1430.96,930.726 1436.62,938.392 1444.5,944.5C 1435.21,939.617 1429.54,931.95 1427.5,921.5 Z"/></g>
<g><path style="opacity:1" fill="#ab6f86" d="M 1626.5,928.5 C 1628.85,929.34 1630.85,930.674 1632.5,932.5C 1629.8,932.155 1627.8,930.822 1626.5,928.5 Z"/></g>
<g><path style="opacity:1" fill="#547f8b" d="M 2150.5,922.5 C 2145.82,931.666 2138.49,937.833 2128.5,941C 2126.56,941.813 2124.56,942.313 2122.5,942.5C 2133.78,938.546 2143.12,931.88 2150.5,922.5 Z"/></g>
<g><path style="opacity:1" fill="#65342b" d="M 1021.5,925.5 C 1014.75,930.207 1007.42,933.874 999.5,936.5C 1006.52,932.325 1013.85,928.659 1021.5,925.5 Z"/></g>
<g><path style="opacity:1" fill="#ae7189" d="M 1144.5,902.5 C 1149.68,926.888 1140.02,942.388 1115.5,949C 1105.49,950.867 1096.15,949.201 1087.5,944C 1077.13,936.141 1068.8,926.641 1062.5,915.5C 1062.5,915.167 1062.5,914.833 1062.5,914.5C 1069.89,925.051 1078.55,934.551 1088.5,943C 1096.47,948.135 1105.14,949.801 1114.5,948C 1138.03,941.657 1148.03,926.49 1144.5,902.5 Z"/></g>
<g><path style="opacity:1" fill="#b3758d" d="M 1632.5,932.5 C 1635.99,933.41 1638.99,935.076 1641.5,937.5C 1638.01,936.59 1635.01,934.924 1632.5,932.5 Z"/></g>
<g><path style="opacity:1" fill="#ab7289" d="M 1778.5,918.5 C 1764.58,931.464 1748.25,940.297 1729.5,945C 1725.89,945.936 1722.22,946.436 1718.5,946.5C 1740.78,942.025 1760.78,932.691 1778.5,918.5 Z"/></g>
<g><path style="opacity:1" fill="#537e89" d="M 2004.5,932.5 C 2008.02,933.759 2011.02,935.759 2013.5,938.5C 2009.95,937.277 2006.95,935.277 2004.5,932.5 Z"/></g>
<g><path style="opacity:1" fill="#537e8a" d="M 2190.5,931.5 C 2191.91,931.973 2192.57,932.973 2192.5,934.5C 2191.09,934.027 2190.43,933.027 2190.5,931.5 Z"/></g>
<g><path style="opacity:1" fill="#537e89" d="M 2258.5,931.5 C 2258.26,933.404 2257.26,934.738 2255.5,935.5C 2255.74,933.596 2256.74,932.262 2258.5,931.5 Z"/></g>
<g><path style="opacity:1" fill="#4c4c5e" d="M 1809.5,929.5 C 1811.55,931.55 1813.21,933.883 1814.5,936.5C 1811.68,935.008 1810.01,932.674 1809.5,929.5 Z"/></g>
<g><path style="opacity:1" fill="#6a472e" d="M 340.5,933.5 C 343.5,935.833 346.167,938.5 348.5,941.5C 344.833,939.833 342.167,937.167 340.5,933.5 Z"/></g>
<g><path style="opacity:1" fill="#fd8c96" d="M 1055.5,921.5 C 1056.5,921.833 1057.17,922.5 1057.5,923.5C 1056.57,924.936 1055.4,926.269 1054,927.5C 1053.64,933.12 1051.47,937.787 1047.5,941.5C 1049.27,934.33 1051.94,927.663 1055.5,921.5 Z"/></g>
<g><path style="opacity:1" fill="#456c75" d="M 2192.5,934.5 C 2195.17,936.5 2197.5,938.833 2199.5,941.5C 2196.17,940.167 2193.83,937.833 2192.5,934.5 Z"/></g>
<g><path style="opacity:1" fill="#765137" d="M 587.5,929.5 C 582.896,937.44 576.23,942.773 567.5,945.5C 575.008,941.337 581.674,936.004 587.5,929.5 Z"/></g>
<g><path style="opacity:1" fill="#6b482f" d="M 751.5,933.5 C 749.833,937.167 747.167,939.833 743.5,941.5C 745.833,938.5 748.5,935.833 751.5,933.5 Z"/></g>
<g><path style="opacity:1" fill="#b1748b" d="M 1506.5,918.5 C 1502.77,934.736 1492.77,944.902 1476.5,949C 1469.5,949.667 1462.5,949.667 1455.5,949C 1451.38,948.356 1447.71,946.856 1444.5,944.5C 1448.39,945.738 1452.39,946.905 1456.5,948C 1481.42,951.721 1498.08,941.888 1506.5,918.5 Z"/></g>
<g><path style="opacity:1" fill="#aa6e85" d="M 1641.5,937.5 C 1644.24,937.707 1646.57,938.707 1648.5,940.5C 1645.76,940.293 1643.43,939.293 1641.5,937.5 Z"/></g>
<g><path style="opacity:1" fill="#765238" d="M 512.5,937.5 C 515.117,938.786 517.45,940.453 519.5,942.5C 516.326,941.99 513.992,940.323 512.5,937.5 Z"/></g>
<g><path style="opacity:1" fill="#5b2e26" d="M 994.5,938.5 C 990.915,940.806 986.915,942.139 982.5,942.5C 986.216,940.595 990.216,939.261 994.5,938.5 Z"/></g>
<g><path style="opacity:1" fill="#6e4b31" d="M 399.5,940.5 C 398.198,942.822 396.198,944.155 393.5,944.5C 395.147,942.674 397.147,941.34 399.5,940.5 Z"/></g>
<g><path style="opacity:1" fill="#7d573c" d="M 690.5,938.5 C 692.749,939.08 694.415,940.413 695.5,942.5C 693.251,941.92 691.585,940.587 690.5,938.5 Z"/></g>
<g><path style="opacity:1" fill="#a1687e" d="M 1648.5,940.5 C 1657.86,943.174 1667.2,945.508 1676.5,947.5C 1666.59,947.023 1657.26,944.689 1648.5,940.5 Z"/></g>
<g><path style="opacity:1" fill="#507b86" d="M 2017.5,940.5 C 2019.55,940.402 2021.22,941.069 2022.5,942.5C 2020.45,942.598 2018.78,941.931 2017.5,940.5 Z"/></g>
<g><path style="opacity:1" fill="#8aafb9" d="M 2022.5,942.5 C 2025.01,942.054 2027.01,942.72 2028.5,944.5C 2026.21,944.405 2024.21,943.738 2022.5,942.5 Z"/></g>
<g><path style="opacity:1" fill="#537f8b" d="M 2199.5,941.5 C 2201.03,941.427 2202.03,942.094 2202.5,943.5C 2200.97,943.573 2199.97,942.906 2199.5,941.5 Z"/></g>
<g><path style="opacity:1" fill="#517c87" d="M 2251.5,939.5 C 2249.37,942.737 2246.37,944.737 2242.5,945.5C 2245.32,943.255 2248.32,941.255 2251.5,939.5 Z"/></g>
<g><path style="opacity:1" fill="#6e4b31" d="M 519.5,942.5 C 521.819,942.992 523.819,943.992 525.5,945.5C 522.911,945.539 520.911,944.539 519.5,942.5 Z"/></g>
<g><path style="opacity:1" fill="#4c4c5e" d="M 1864.5,942.5 C 1862.42,944.873 1859.75,946.206 1856.5,946.5C 1858.85,944.659 1861.52,943.326 1864.5,942.5 Z"/></g>
<g><path style="opacity:1" fill="#8ac2dc" d="M 1927.5,919.5 C 1926.67,925.156 1925.84,930.823 1925,936.5C 1923.2,941.58 1921.2,946.58 1919,951.5C 1914.7,957.052 1912.37,963.386 1912,970.5C 1908.43,977.969 1904.6,985.303 1900.5,992.5C 1901.64,988.583 1902.47,984.583 1903,980.5C 1906.57,974.798 1909.57,968.798 1912,962.5C 1917.73,948.368 1922.9,934.035 1927.5,919.5 Z"/></g>
<g><path style="opacity:1" fill="#517b85" d="M 2122.5,942.5 C 2120.49,943.924 2118.15,944.59 2115.5,944.5C 2117.51,943.076 2119.85,942.41 2122.5,942.5 Z"/></g>
<g><path style="opacity:1" fill="#68462e" d="M 351.5,943.5 C 353.819,943.992 355.819,944.992 357.5,946.5C 354.911,946.539 352.911,945.539 351.5,943.5 Z"/></g>
<g><path style="opacity:1" fill="#507a85" d="M 2202.5,943.5 C 2204.82,943.992 2206.82,944.992 2208.5,946.5C 2205.91,946.539 2203.91,945.539 2202.5,943.5 Z"/></g>
<g><path style="opacity:1" fill="#8badb7" d="M 2032.5,945.5 C 2035.19,945.336 2037.85,945.503 2040.5,946C 2041.42,946.278 2042.08,946.778 2042.5,947.5C 2038.88,947.678 2035.54,947.011 2032.5,945.5 Z"/></g>
<g><path style="opacity:1" fill="#714e35" d="M 567.5,945.5 C 563.924,947.728 559.924,948.728 555.5,948.5C 559.313,947.213 563.313,946.213 567.5,945.5 Z"/></g>
<g><path style="opacity:1" fill="#704d34" d="M 700.5,945.5 C 704.048,946.13 707.381,947.13 710.5,948.5C 706.714,948.68 703.381,947.68 700.5,945.5 Z"/></g>
<g><path style="opacity:1" fill="#6c4a31" d="M 734.5,946.5 C 732.162,948.04 729.495,948.706 726.5,948.5C 728.905,947.232 731.572,946.565 734.5,946.5 Z"/></g>
<g><path style="opacity:1" fill="#bc8097" d="M 1236.5,946.5 C 1239.23,946.171 1241.56,946.837 1243.5,948.5C 1240.85,948.59 1238.51,947.924 1236.5,946.5 Z"/></g>
<g><path style="opacity:1" fill="#4a717b" d="M 2208.5,946.5 C 2211.07,946.721 2213.4,947.388 2215.5,948.5C 2212.77,948.829 2210.44,948.163 2208.5,946.5 Z"/></g>
<g><path style="opacity:1" fill="#aa6d85" d="M 1268.5,947.5 C 1263.94,949.04 1259.1,949.707 1254,949.5C 1250.32,949.499 1246.82,949.165 1243.5,948.5C 1251.86,948.621 1260.19,948.288 1268.5,947.5 Z"/></g>
<g><path style="opacity:1" fill="#8996bf" d="M 1934.5,894.5 C 1933.24,901.288 1931.57,907.954 1929.5,914.5C 1929.6,916.553 1928.93,918.22 1927.5,919.5C 1922.9,934.035 1917.73,948.368 1912,962.5C 1909.57,968.798 1906.57,974.798 1903,980.5C 1902.47,984.583 1901.64,988.583 1900.5,992.5C 1897.74,995.14 1895.24,998.14 1893,1001.5C 1891.44,1007.51 1889.11,1013.17 1886,1018.5C 1882.12,1025.39 1877.79,1032.06 1873,1038.5C 1871.99,1040.02 1871.49,1041.69 1871.5,1043.5C 1871.17,1043.5 1870.83,1043.5 1870.5,1043.5C 1870.17,1042.83 1869.83,1042.17 1869.5,1041.5C 1877.07,1027.33 1884.57,1013 1892,998.5C 1895.4,994.78 1897.4,990.447 1898,985.5C 1899.98,983.642 1901.15,981.309 1901.5,978.5C 1903.2,977.636 1904.36,976.303 1905,974.5C 1908.49,963.566 1912.16,952.566 1916,941.5C 1916.67,940.833 1917.33,940.167 1918,939.5C 1919.51,934.618 1920.85,929.618 1922,924.5C 1924.38,922.689 1926.05,920.355 1927,917.5C 1928.74,911.607 1930.07,905.607 1931,899.5C 1932.63,898.045 1933.79,896.378 1934.5,894.5 Z"/></g>
<g><path style="opacity:1" fill="#4e7984" d="M 2242.5,945.5 C 2239.86,947.328 2236.86,948.495 2233.5,949C 2227.32,949.819 2221.32,949.653 2215.5,948.5C 2224.71,949.097 2233.71,948.097 2242.5,945.5 Z"/></g>
<g><path style="opacity:1" fill="#febc8c" d="M 224.5,964.5 C 226.257,965.084 227.59,966.251 228.5,968C 230.117,972.729 232.117,977.229 234.5,981.5C 230.43,976.321 227.097,970.655 224.5,964.5 Z"/></g>
<g><path style="opacity:1" fill="#fe8c97" d="M 1040.5,956.5 C 1038.81,960.737 1036.64,964.737 1034,968.5C 1034.59,973.098 1032.76,976.098 1028.5,977.5C 1030.86,973.439 1032.69,969.106 1034,964.5C 1035.95,961.58 1038.11,958.913 1040.5,956.5 Z"/></g>
<g><path style="opacity:1" fill="#fd8281" d="M 1023.5,986.5 C 1021.33,990.852 1018.66,994.852 1015.5,998.5C 1017.2,993.727 1019.87,989.727 1023.5,986.5 Z"/></g>
<g><path style="opacity:1" fill="#fd8559" d="M 850.5,928.5 C 851.167,928.833 851.833,929.167 852.5,929.5C 855.745,938.06 858.911,946.727 862,955.5C 863.667,957.167 865.333,958.833 867,960.5C 870.47,968.243 873.136,976.243 875,984.5C 878.297,991.75 881.964,998.75 886,1005.5C 888.694,1013.12 891.694,1020.45 895,1027.5C 896.154,1028.74 897.488,1029.74 899,1030.5C 899.49,1031.79 899.657,1033.13 899.5,1034.5C 897.771,1033.88 896.271,1032.88 895,1031.5C 894.049,1027.97 892.716,1024.64 891,1021.5C 887.276,1018.01 885.276,1013.67 885,1008.5C 879.034,997.258 873.368,985.925 868,974.5C 861.56,959.411 855.726,944.078 850.5,928.5 Z"/></g>
<g><path style="opacity:1" fill="#fd878b" d="M 1003.5,1017.5 C 1000.87,1021.46 997.871,1025.13 994.5,1028.5C 996.372,1023.96 999.372,1020.29 1003.5,1017.5 Z"/></g>
<g><path style="opacity:1" fill="#fd8587" d="M 994.5,1028.5 C 992.628,1033.04 989.628,1036.71 985.5,1039.5C 988.129,1035.54 991.129,1031.87 994.5,1028.5 Z"/></g>
<g><path style="opacity:1" fill="#fd8385" d="M 985.5,1039.5 C 983.628,1044.04 980.628,1047.71 976.5,1050.5C 979.129,1046.54 982.129,1042.87 985.5,1039.5 Z"/></g>
<g><path style="opacity:1" fill="#fe8a91" d="M 976.5,1050.5 C 974.3,1054.88 971.467,1058.88 968,1062.5C 962.612,1067.06 957.446,1071.73 952.5,1076.5C 960.872,1068.13 968.872,1059.46 976.5,1050.5 Z"/></g>
<g><path style="opacity:1" fill="#fd888e" d="M 952.5,1076.5 C 948.441,1081.56 943.774,1085.9 938.5,1089.5C 942.559,1084.44 947.226,1080.1 952.5,1076.5 Z"/></g>
<g><path style="opacity:1" fill="#febc8c" d="M 744.5,1193.5 C 734.478,1196.71 724.145,1199.04 713.5,1200.5C 715.019,1199.59 716.685,1198.76 718.5,1198C 727.128,1196.17 735.795,1194.67 744.5,1193.5 Z"/></g>
<g><path style="opacity:1" fill="#febc8c" d="M 527.5,1196.5 C 548.588,1199.96 569.588,1203.29 590.5,1206.5C 569.084,1204.99 548.084,1201.65 527.5,1196.5 Z"/></g>
<g><path style="opacity:0.671" fill="#fec093" d="M 712.5,1200.5 C 701.774,1203.12 690.774,1204.79 679.5,1205.5C 690.189,1202.75 701.189,1201.08 712.5,1200.5 Z"/></g>
<g><path style="opacity:0.151" fill="#fec7a0" d="M 678.5,1205.5 C 662.815,1208.8 646.815,1210.13 630.5,1209.5C 622.5,1209.33 614.5,1209.17 606.5,1209C 601.234,1208.91 596.234,1208.08 591.5,1206.5C 604.454,1207.88 617.454,1208.55 630.5,1208.5C 646.563,1208.25 662.563,1207.25 678.5,1205.5 Z"/></g>
</svg>
